<mxfile host="app.diagrams.net" modified="2024-06-03T18:51:06.521Z" agent="Mozilla/5.0 (Windows NT 10.0; Win64; x64) AppleWebKit/537.36 (KHTML, like Gecko) Chrome/123.0.0.0 Safari/537.36 OPR/109.0.0.0" etag="qY-7Jr6HNr4yG1G5ANke" version="24.4.13" type="github">
  <diagram name="Page-1" id="RSpUR5VPDEfvOEEM9jKk">
    <mxGraphModel dx="753" dy="741" grid="1" gridSize="10" guides="1" tooltips="1" connect="1" arrows="1" fold="1" page="1" pageScale="1" pageWidth="850" pageHeight="1100" math="0" shadow="0">
      <root>
        <mxCell id="0" />
        <mxCell id="1" parent="0" />
        <mxCell id="6d0o6C51L8DvsJEreN6W-1" value="LAN" style="swimlane;whiteSpace=wrap;html=1;" vertex="1" parent="1">
          <mxGeometry x="120" y="80" width="502" height="512" as="geometry" />
        </mxCell>
        <mxCell id="6d0o6C51L8DvsJEreN6W-7" value="" style="group" vertex="1" connectable="0" parent="6d0o6C51L8DvsJEreN6W-1">
          <mxGeometry x="200" y="160" width="100" height="40" as="geometry" />
        </mxCell>
        <mxCell id="6d0o6C51L8DvsJEreN6W-4" value="" style="shape=image;verticalLabelPosition=bottom;labelBackgroundColor=default;verticalAlign=top;aspect=fixed;imageAspect=0;image=data:image/png,iVBORw0KGgoAAAANSUhEUgAAAgAAAAIACAYAAAD0eNT6AAAABGdBTUEAALGPC/xhBQAAACBjSFJNAAB6JgAAgIQAAPoAAACA6AAAdTAAAOpgAAA6mAAAF3CculE8AAAAB3RJTUUH5gwGBRgMYTT2ewAAAAZiS0dEAAAAAAAA+UO7fwAApqdJREFUeNrsXQWc1tXSnmVZlgWW7o4llu7u7u5uJJbuVNGrol4Lu1CuHWAHFrYioGCAhCglICKdMt953vNyL/ohbJzzr3fm93vuRdh933+emTPzzDNEYmJiXrAohRiFTArZFHIpFFAoqlBSoYxCeYVGCt0URirMVrhZ4TGF1xQ+UVin8K3CZoXtCjsVflU4qHBE4ZQCXwJnFA4p7FHYGv6MNQofKrylsELhKYVHFZYqXKcwRWGIQmeFhgqVFMoqlFIoplBYIb9CboWsChkV0smtFhMTExOLRMsSduoVFWorNFVor9BH4SqFeQq3KSwPO96vFLaFHfif/+C8vYQ/FH5W2KjwqcIbCk8o3KIwTWGgQkeFxgrVFBLCgU4WeTTExMTExIJgMWHHVlOhg8IIhTkKdyo8r7Ba4RuFHeGdN0cQjoSzDF8ovK7wn/B1WaAwTqFnOKOQEM6IiImJiYmJedYyh539kPBu92mFt8M7eDi73xTORpijTymQ4Tis8IvCBtLlhxdJlxymK/RQqEG6RCImJiYmJua4oV5fSKFTeNf6AumU989hR39S4bw4dGM4Ew4M9oWv8fcKq8JZA2QMminkkcdSTExMTMyEpSdNXIOjR70eaWkQ315V2B128OLkvQHch3MKPyk8qTCBNL8CRESQKTOGgzYxMTExMbFLGlLLieEd5TDSZDykoY+Kk/UdzoazMiBTzlDoqlCHNAEzTh51MTExsci2DAqlFdopJJGuNb9LugZ9Rpxo4IiHCAhAwLxRYbhCfYUc8hqIiYmJBd+QBkatuDlpUtkT4R3+lvAuX1L6kQGUCw4ofE26pIPSDloTC5CUCsTExMQCZajl91N4PLwL3EWaVOaHvnqBfRxX2EuaXPgsaT2G4vLaiImJifnLUN+F+lzl8EIOhbxjsrsXUMpIhSgBrVe4RqEBaVXDzJIhEBMTE/OOYUGGilw5hVYKs0gr6B0URyYwhBMKnylcS1rUqYJCvAQDYmJiYu5YrEJVhaEKtyq8Q7pPXHb6ApuZgd8VPlC4nTSRsArpNkMxMTExMYuGQTJo44KsLgbgQEp2P0ktX+BOMHAg/AziWRxLelhTjLymYmJiYmYdP4bHPEiaqIX0/jlxQgLyTlcBMgMY2rRSoTuJ1oCYmJhYqgy7qHykhVtQd91EWthF0vsCv8w0gFokpIqbKBQkXbISExMTE/uHXX5ehboKY0hPiftDnInA50CL4Xukhabqh5/xdPK6i4mJienFsDrpGuqjCt+RpPcFwSwTIJO1LBzgVpFAQExMLFItJrzbx+jcLxUOiZMQRAjAYfki/OzXIy1JLSYmJhZ4Qy0U/frPKGwnPTpXnIIgEoFnHxMMnyM9j0KIg2JiYoGyC0I9aN9Dmn8DaZKUEPpSgqhopugMTDGZmGLjmeJyMGXOzZQlP1PWwkzZizHlLMWUqwxT7rJM+SszFarBVKQOU7GGTCWbMSW0ZirbgSmxC1OFnkxV+jNV7qv/jL/Dv+FnSjTVv4PfLVhdfxY+E5+ds6T+rqyF9Hdnyq2PBceEY8MxRqWT+5XylkK8Ez8oTCQ9xhhCQ1IiEBMT863jB5O/BelhKz+Q9Otf3sFniNdOFU42XyWmovWVQ26lnHNXpqqDmeomMTVbyNTuVqZuDzP1e55p6CqmsV8xTd3KNOcA0zVnmK5jO7jmtPqO/UxTtqjvXKO++22mvs8xdX2Qqe0tTE0XMNWZoI51oA4oSrVUQUQ9fS451DllyafOMYsECFfuIEA74c0KbRWKkCgOiomJ+cjxF1cYTFog5Sdx/BcBO+QcxZVjrKt33FWUs6yrnGbzq5k63M7U83GmQa8wjf6EafJm7XBtOnVbuFoFC7P3MU3axDTqY6aBLzP1WMbU/jZ1rotUoDCeqXJ/pjLtmArX1lmF6Bh5Pv6aFUArIYYTjQxnBcTExMQ86/ixSE1TeFPhV3H2ytnnLsNUui1T7bFql7yEqc/TTMPfZRq/Tu/aZ//KtPCY/xx8WrHwKNOsvTqbMG4t07B31LV5Sl2jm9W1GqcDgzyJTOljJRgg+o10W+wEhUKSERATE/OSocY/Q2Ed6d79yKzvw1kVb6zT9L2f0k4eDm7mbqZ5v6td8Unl/M5HnrNPNs7ra4RrhWuGAGn8el3qaLGYqXI/pgLVVWAVG6mlAXTKoGNmCmmOgJiYmJgrBsZyifBi9HNEpPlRu46JY8qUiylbEeWMqup6d/vbdcp+0Qmma88xLf5THL3pwADXFMD1XXicacznupwAEmPe8kzxBZkyZtdZF4qKhGDgF4XpCgkKmSQrICYm5oShja9GeMf/DQVdtCd9RqYcJTSZrWIvpqbz9e5+0g+aFCcO2n0sCgcEXe7T3ILSbXTnAgK1YBMOEQhgNsYC0rLZIjcsJiZmxWLCjn++whqFM4Hd5WfOoxn41QYztbqeacBKpsmbwil8cbiexuLzTHMPMI3+VAUE9zPVn6LJluBipM8QZJXB9eF3s7JCtCxXYmJiJix9eFH5F2n1suAJ94B9jj531JiRVh70qq49g4EfSueLY/VvduCE5hKMXM3UazlTvUkquGvAlDFbUIWFPlaYGy7PSVlATEws1ZZdYbHCZtJDTYKzWEK0BqI3La9jGvYu05QflcPfp3b5p8RpBjY7oIK5+YeYpu9gGvcVU7eHmKoO0qJGwWofPKLwFemuAVEXFBMTS1GqP7/CKApKD3+6GF0Pxi6/ygCmvs9oR/Bfwp44x4gtFyw+p0s7Yz5jajSLqWBNLcYEsmdwOAKDwu90jCxvYmJilzKkCwso9Fd4W+GU79P62NlBcKfGCN1/P3OXXvTF+Qkup08w4gOmxnOYSrXS8sfIFvm/NLAqHAgUJ5EYFhMTu8gyKnRSWE5adMS/ix12b6Xb6d0c2Pog72GnL85NkNLsADggQ99ian2j5ocgg5QuvZ8DAegIrFDoR6IjICYW8Qa2cE2FOxW2kF8FfNCqBznZZos0gQ/1fGHsC0wBAeSsPZpI2HEpU7lOTHHZ/RwI7FK4X6E2SceAmFhEWl6Fq0nXCP2Z7sdgGbTqDXyJadr2sKSupPgFFgHth1m7mUZ9xNRwBlPmfH4NAk6H3310DOSS5VBMLPiGOn8OhV6kJ475i+CHnX58fj3attNSnaINpffF6QvcKBOoZ2/+YaZe/9FaA+Cc+I88eGEMcZfw2iD8ADGxABr0+hsoPOyrHX9UFFOWvEzFGjA1msk08kPd2y0OSOC1zADUCJvM1c9q5rz62fVPIIA14VGFpgpZZbkUEwvOrr8UaZWwb8kv0r0gW+VKYKo2lKnbw1rMRRyNwA+YukVrDODZxTPsH+IgsgHQ/ID2R6JkA8TE/G0g+PQg3dZ3xDe7kXyVmFpcwzT8/bAan6T4BT7tIhj+nn6W8Uz7JxsA0a/VCn1JSIJiYr60ogp3kWb8ep/dj7599Ox3fYBp8uYwoU8ciSAI2gLHdDsqnu3CdfySEcCasUdhqUIRWU7FxPyR7s9HWsVvM3md5AdSX9bCTFUGMo1YrVv3RJlPEGQpYvBXRryvnvn++tnHO+APkuBQhdwk8wXExDxpGUgTeF4gr5P8YrPqvv1GM5jGfiWOQRCZwLPfcDpToZrqnYj3Q1ngcdJE4gyy3IqJeccKkh788aO3d/yxTCWbM7W5iSlpI9O1Z8UJCCK8e+AM04RvmFrfwFSiGVN0rNcDgW/Da42UBcTEXDYQdGqHI/ODnq7vYwRrp7uZJn6nFz1Z/AWCv7YRTvxWKw0Wred1nsDvCs8oNCY9LlxMTMxhw2SvQeGI3Jsp/3TRTAWr65YotPFhkZPFXiC4fCAwZQtT1wfVu1NNv0PeDALOhHlGI6UkICbmnCHiLhbe9Z/13MIQlY4pY3amImoX0/c5zYAWYp9AkHLCICYT9nmGqXBd/U7h3fJeIIA16CmFEpINEBOzazkVeiqsIa8x/KPUTiW+IFPZjkzdH5E2PoHAFBYc1Vm0Mu3VO1bAi4EA1qK1pDVHcsoyLSZm1qDIBWWum0n39XuP1V+pj9ZEn7VXtPkFAuM4r9+tno8zVezt1a6BnQo3KZQhUREUEzNmnRTeVThBXpPrLdZQ7fgfZZrxizh+gcAJhcHpP2t5bBBrvccRQLsglEdbybItJpY2i1WYqbCDvKbml6MEU7tbmab8KO18AoHTuPaMVsxss4QpezEvlgQwbXSKQpws42JiKTOQacopLPfUrh87fow8hYDPzF16HKosxgKBuyOJkX2DoBDeTW+1D55UeFqhPAlBUEws2bv+jqSHcXiD6Ic0Y7aiWrJ3zGey6HpWZvYk07xDTHMOMM3ep7CXadZuHazBSUzfwTRtO9PUbbrVbMpm/d+zf9UyzHId/Y3RnzJV7q/e1SKalOudmQIfK3RWyCjLu5jYP1sWhSSFrZ6J4jPlZKrUV7f0zT8si6xbWHRcOfM9TJM2MY1do6fMDXiJqedypk5LmVpdz9R4DlOd8Uw1R+pRtFUHqaBtgCZoVuzJVL4bU7nOTGU7MJVuy5TQSv13J/2zmFg36BWmuQflWvsZ8//QrYOVejPF5fRSNmC7wmSFeFnmxcT+v2F63xLykqIf9PrB7MfuUUbyOiMCg2s95nOm/iuZOt7F1GSucuijNPO7bHum4k2YCtViyluBKUdxpsx5mWLizKg15izJlNiFacgbci/8ng2a8TNTj8eZCtbwmoLgLeG1TkxMjPR0reoKL5Fm0Lr/ombIwtRgmh5hKgQ/S7Kv3+kdfIc71LWeonbiHbXyW97y2hFDUyEuh3buTvd950pgan+7lAV8TxRU7+6k75nqJul32jtdAljrapJMFhSTlD/1J82YdbneH6UXiYTWTCM+ENnetPRrY9YBVNzmHtA7+nFr1W5sGVN95ehLNNWOHYORojNo0hbqtVFR3tN2aLaQacERuad+x9WnmIa/y1SqZTgQiPJCl8BPCgPCa6CYWMRZIYX5CsfICyS/fJV0S9Hc32TBTFWN/gTTtJ+YRn3E1OUB7exRZ89W2OvT3S7D/8itOQYyvCkYmLOfqfWN6l2v6BWSINa+eQr5xB2IRVrK/xGF066/hKghVxvCNPJDWSBTlF49xzRzt3b42N03nafr59BH8KvDvxQwonb6L3K/gyQkhAwfOnoy5/bCM4Y1cKlCWXENYkE3jO/FCE0oZbk7wQ+p56L1tYof2sBExe/KwHyDcev0rIO6E7Q2e/7Kaqecy6uDWtIOlCr6Piv3PnCywnuYuj7EVKSuF7QDwAt4QXgBYkF3/pDH/JrcnuIXHasdGFrKpNZ/eWCh7P20JlJB9hgEucx5NGs+iA7/Uqg+XALEoHIDJv3AVHus5qO4nwn4RKEuyRwBsYAZBDBA9kMbjHuSvnjJc5dlGrBSS4nKIvj/F0SI6Ez4hqndv3XLHYau4LqFaqZRkeP0LwZqxtIGGuCulDN6TUBw625gi7Vxj0IXhQziNsSCYHkVJpGbZD8wzLFrRa0fbUGymP+VvAdlvJGr9WyDUi28OmnNPcTl0r3l8rwEmxuQtDHMDcjjdrD7h8IIhRziPsT8bCUVblU45J7zT8dUoKpWi4M8rCx2msA3dStTvxeYmi1iKtvRq3PWvYGM2SQAiBSAD9ThTt0V5O77sF9hkUJhcSNifjMQWTDM5z8Kh91z/tFaBnbUx0zXnBJ1NGjiQ9IYwjvoiYZmureGp3gTORMkaxRppTB0t1Ts5QXlwPsUiotLEfOToaUFw3xOuvbygJne6l/K6e2UBW3o20w1hutaNnb6IEGKY08+MC9AAoDIA0SsWlyrhavc7RBYqZBf3IqY1y1GoT5plSt3yH7pM+rdLfr6I1HABTv9+Ye01C6EjfJVVtckTtL7ackioV1MHGLkEgShG1CyuV5b3FMO/EIhgaRDQMyjFkd65OUW93b9uZnqT1aRewTu+jEtD7MLBqzQE/AgcCQOPO0Af2TqdnGEEZ8NUGtKvYk6s+hehwCCgIYkHQJiHnT+vRW+dW3nn6u0Ju9ArCaSFiZo1UPnHONssUuJySRO2xj7PydTp3tkKJAgLIR1VLfHghPizjN5TmGNQifSrdViYq4bolH0+P/givOHjj8cHybLRVLKH4EOepfR2ogJeumlrm8UmEIIgZhZe8XxCf46ybL/CqYSTdwqq2GN3ajQRzIBYl6wXgq7XKv3I92d9G3kjO2d/wdT7yeZyrRjylpYB0DisM3L/1YdpIcbiQKg4P+10Z7RYlmV+rpFqEUQ8ItCd3E/Ym4ZUlAYZ+lOm1+W/HqyF9JyQV+kL0zaa7mYKXe5sDJflDhq40qRMZo7gVKSSEQLrjRPAOW3lteptSifm4JBfRVixR2JOWlZFcYo/Op8yj9GE7OQ/g78AnOY6aovdStS9mLioFMi/gRnju4HzH+HkA/q+XDuaINE5gTXM2cppjyJTAVrMJVsplP+Y78S5yZIGfq/wJS/iluaGpAOHhVek8XErBvkKScr/Oz4w47FvGJP5RS/CLYyG4RIQOxrNEvX9yNdrAfZDjhzMLCzF/2f0y7WiKl0G6byPXTKvtYY3QXSWF23Zgv17qztEqb2tzN1voep28NMPZcz9XlGd0sMfp1p5Ee6ZRKlFXFmgtS23o75lKlCD71GOf+O7FAYr5BN3JOYTcukMFdhN7nByG44Q+vWB9X5g8QI1UJM3oPjj6SJeyFE6QU0dxm1I2+hxYvgyDvfy9TrCbXTepFpyBu6L/uqz3UddsqPukVr7m+aGLn4nDgkgTtBAOS1609hypjdjfcHnIBp4TVaTMy4Qd73WtLylM4+3BhO03Ep07yDwdXmH7eWqeYo3c7o/mhSZ+rtSMPD0WPn3v7fTANfZhr7pd6RT/+Jac5+ceoCfwGBKIZquZMJ+E1hnrgqMRs7fzxYJxyv5cYXZBr0ajBZ/iD3Td6sd7rYNQSN0Y/UPdrpIKWatRBT0fpMDaYqR/8K08zd6vyP6R57EO5wf0VuVxCIgP6s5ihh7XK+VRDSwXNIa7OIiaXZUFeaHo4uHdwhql1wkbpMw98LXsofjh/pa9SosxYMlsPPEM+UowRToVpMiV20QBF29kjTXys7eUEElQTA4ylcy41SHtbqqUIMFEurxSuMC9eXHOzDjtMDWMZ8HiyngR0uatZtbw4vDAFI9UMrH8z64o10CQPnNugVndmIFG0GgeCfSnujP2Eq20Gvac6+myBpjw2v4WJiKTb0lg5T2E5Oi7DUGKHrwEHa+c8/zNT1QaZSLZhis/rb6aNUkbcCU5WByuHfonf4yGigL1oWfoHgr5kACJVVG+xGwI+hbENIdALEUmEY7OMs2x8p5CbzmGb/GqxdwMjVOh2eOY9/nX6GzLqG33iOZuJP+kHfJ7QsykIvEFwes/YwNZzuhoDXToWu4s7EkmvpFdopHHTU8cM5gumP+nhQiECYzocJYplz+2scL44VQ4UgnAPN8y73M03boe8NWhWFrCcQpG5iZ/s79NRSZwMBrOWtw2u7mNhl0/4dHU37o4aMnvfeTwVj6hqc48ydTD2WMeUu67MBOJn0MZdpz9TqXzqtL8Q9gcCgyNdJrWmRp5zTm4KtCu2lHCD2T4bJUh0UvianpvrhBbgg6xsE7XVI9w56jalKf/+M5UVdEpK4iV31rAGI7Mw/JAu1QGBT6bPfC0z5KjkZBPypsE6hLckUQbG/WbRCM9Kzpv90zPmASDb07QCwxcHu38LUYBpTrgR/9PNDXrhEUz1Qadgqphm/BFteWSDwmurn4Dd0JsC59x5r++cKTcJrvphYyMoorHfU+UPxDi0yQVB5AymucB1/7PpB5ivbUe1Anmeatj04nAuBwJcE4Q+ZcpR0cg04p/CVQoK4PTFY/vDO35m0P3aehWszjV3j7x0nshbTd2iSH6bNUZSHxXky68wEMhTjv9ZkJNntCwTeaBPExE+sic4N/cJa/6lCXnF/kW2FFJ53bOePHv+E1lrv/brz/k33YyYBJsoVqefddD/GJmcronUH2t/GNHufLLYCgVfXFEw4xbvqnFYA1vynFAqKG4xMy6dwm8JRZ8hmyiGV66x3/n5+WSds0CNn4/N7t7ZfoBpTnXFMfZ/VA3Wuk7Y9gcDz3UMIAqAamM4x6eAjCksU8og7jCyDPCT0/fc75pjg/Cd+62PSzmmmfs8xlWzmZKouZS18xRtrKd4xn8l8e4HAj0jaoNdK59aOfQqTFbKIW4wMi1Hor7DHsYesTAfNkvfziM8W1+rxtV4T9EFmpVgj3VuMeeSizCcQ+BtYK0u3c3Id2aXQJ+wbxAJsUaQVoQ44VodGfzkck1+JfihZQBjHS4N7LhD7kOrv86zW4F8sgj0CQWCANbNCDyfXnV8VWoR9hFhAnX91cmqyHwh/mOiXtNGfLyCIfr3+o3f9ntnxK8cfl0Pv+DvcKWl+gSDQmYAfmSr1UWtpRqfWGCjAVpEgIJhWVeF9R9r9UCNPaKN2z1/5sy0HkwgbzQy393nE+SOgAku43b/17kDa+ASC4ANtuyFiYHqnOgNWKVQSdxksKxVu+TjliLPC1Dg/sv2hzjV0FVPptt4R9UGbYaGa2vEjMPG9aqJAIEhZELBOrakNnFpzTiosVyghbjMYlkPhBoVj5JTC37i1/ms9u/aMTvljGI4XWP6o80Ojv82Nuowi5D6BIHIxTgUBucs4tf6gNfw6heziPv1tGRXGOeL8wY6Htv/oT/01LhbHOu93poYzmNLHeSPVDwGfVtcxzdipsxKyAAoEohOAtTVfRac6kaARMJpkeqCvDdP97Pf6Y6QvGOkYKuOn2jR6+xFZo1PB7V0/OiaQPak/xb9dEwKBwGIQcE4PT8tfRa+59telveGuMTEfWmmFbxzZ+SMqxUhfP9WnFx7TA3FQW3Pb+WfMzlS5n365MS9cFjuBQPBPPKX+LzDlSdRlQvvr01dhDpmYjyyXwjJyQuM/voB6IFfo3bRfXiI4WYzBxY47yuUhPniRu9zHNONnkexNLaCDgMmGmDGByYwI7CCM1P0Rps7q2na4QysktlzM1HQ+U6MZTPUmMdUao/+/5XVa5XHWHn+VrwQRGgSc1jLf8QWd6gx4WCGnuFV/WAaF+Qp/ONLu1/1Rf9WpcayYiod+erdr/VUG6lZJPwVPbgkyzdqrrxUyTZ3u0Y68xnCmMm31JLX8lTWBE7oNWQvpWQ2Z8zJlyqXvdWxWLZ4EngfEVS5kffD/GbLo38FI51bXq4DisFxzgfeDgJ6PO5W9PKQwO+xbxDxskHIcqrDbvgPLqHfRfklZY2c3+1flNEa4S/aD8ylYnan302FHE8k7zvPauS86oUWN5hzQI5ZHfKCdfK3RTMUa6p0ONBngqNGeiWcPEshokTSdwcH9KaDuz4jVQsAUeDyTeUqtwTc4JRS0U2GgQnpxs960dAqNFdZbfxiwk0LqdO4Bn+wgz+ke+oq93JX0zV5Uk/zg5CJ2N6+c6qzdeujJsHeYuj2kRZegGokdfEycN/QXcibokc/CyRB4ek6JWoPrTdRrsjN8gEZhXyPmMSuqsNKRnT/kKSFT6Rdlv6u+1BO2omPccSZ4ORNaM/V9JvJ2lbj+WKQgDIXafJubmCr3110jsfHeHKl8ASgrDH9P5iwIvC8ZjM0Nyor234uXFIqIu/WWRSssVThrvd2vRFOm8ev9k7oe/QlT8UY6XeyWmA8mCU7eHDnyvdg1J33L1PtJvbuv0FPX6UEYjYr2ttP/O6oO8k+mSxC5pTSIr2FGiH2NAPiY2yUL4C0bQ1q4we7Nz1GSaczn/nFkIz8M98xGuSPhW7ajOobVmqUeCUIlV33B1HwRU6mWWhQKDt+ZXYk9gDyI8xJHI/B6pm3Ux04NLzusMETcrvuGqU3NFLZYv+lxObVD9YPzBzkGbWDYfVOU87t+sM5b/UtrDQSxrQzntOi4Ju2N/oyp2UKmAlWZMsRrjoXbrZWm0WSetGgK/BEEoGQFXRH778UmhXokkwNdteIKr1nv98+Sj6nHMk2m8/pLMP+QHpzjTI/s/2/tw+CegS8Fb2gPFhdc20k/MA15U7dS5q/qLqnSKUDoSvQBBH4hPHd9kClTbif0AV4Kc8/EXLBsCldbT/0jmmxxjT9mz8NBNb+aKXMed1LFVQbodPG154K125+8SWdU6k3Wkx69MinRSRKnjF8W+AWYbQKdDPuZAGjNLFDIKu7YedIfdP63W9/RVhvMNOMXHzz0yvk3mKodsdMOIlNOnfIPUnsfuhUgvAMCY8kWWlSHoiLL8V8AAh4JAAR+AgaJVRviBAdnq0LbsE8Sc8gKKnykcN5qLbtIPT2K1uvpzzn7tKyrM72wfyNGltDtbQuOBmPhQG1/0CtMVVXgl7e8O9fUa8hWWEoAAv91BmDtxhpul5MDH/S+Qn5xy84YlJjutF73h2gNWui8vPDh2BDpwlk5zTaHHgJY/uO/9nnK/7xu25uprmPHpbr3HU4/XbQ4/gso014CAIE/y3foDMhW1PY7ck7hVskCOMP676hw2m7NM4tWaPO645r+M1ONkQ4L/KhoOmtBpqbztLSwr4foHP5f616O4sFj75tCu9ukC0DgX4AUaJ+3c0qhnXQF2LWKCmuspv7B6q49TrfSeV0Cs84453f+0BXAACSkyv26IKA9EXr7mIqXp5wT4iH+BbgPmDIojkTgZ2GumqNsb5Tgkz5XKC9u2o7lVrhX4aTVun9iV6ap2zxepz6p29Cc1I3H1C3o1YekYX1KCMPQneHvMtVN0q1t4viv8D6k0zMv/NABIxBcLlsKueCyHWy/MydIK9LK6GALdf8RCvus3kDos49439va52CnN7/GWbZ/dKyOoNEO50fnH1IJ+0h3dEAcKRJ6900AstcTvpb6vyAY+gBD31aBfyXb781e0iqBwgcwWPevr7DRauof89C7P+JtQhtS1y2v06qETjkB9NI2nBHWg/eRI0AQBwliqDdiUAgG7zgzO9z/wHUq2kATqKT9TxCYIOCs5gNAottuKWCtQm3hA5hL/T9ul/SXWQvoeHlS3fzDTG2WOKFw9VcFxNY3+mskLBwWdBsGrGCq0EMTOsWpp0DyOocWdJq6VRyGIIB8gNNMTeY6QQp8SEoBZqy/wnGrNwujcuce9La2f4c7lEPO72DvdxH9nX5q8YMSYt9nmcp3145MHHryxK6gHAnNgzLttIx0JAxvEkQu5uxnSuxi+906qtBb3HfaLI/CN1ZvFFraoPjm5Qe22yP6OJ1yCnkSdTnE650QF6f2rvpcd0XYTe95NGUfrYLDAnogUUIrTWSt1EfrQ9Qcqa7LeKb6U5gaz2FqtkirNra9hanT3erZelgFTc9p7su07cGb4SAQXAoYH4yyr913c51CLnHjqbfrSYssWCK3xahFcKm3d7kYrOPMiEuNgtXVd77in7Q/dL/bLtECPn4fvXvFeQtZNIkJwjxQfmx5PVPPx3VL49g1TBO/VU58my6BzNytdRqw25l3UDP5Fx7V7ZsI7EKOXsh9gggmBUL4y25r4FnS82rEUkH8a6Oww+quqcYI74rZYIEe9CpT7rLOaNDjehRroHbSX/og7R8exztyNVPhWlqV0O86/Wi5QwADzgJInhAmAoeh1Q36OcAUQowf/q8jP8F0zelgDV4SCJwE1v7qw9W7Z1X1E/NqWgghMGVWSOFlsiX3i8W2aD3vpv6xsA9+Xe9qHUkhx+j677Sf/NHLP26d7k/3rU5/lA5aQLLMXUYFMbU1b6HZQs1hgLP3MiFVIAgKsOHB+2dPBRQ+bCXp+TViybCMCpMUDlqt+/d4zJv1TrDYR3/MVKSuc5PeKvZWzn+H93f9mDbY/jZdpvBjSx929wjqKvdVzn4BU/dluk0R6XpZjAUCFzKtZzQPxi536IDChLBvE7tC6r8Gablfe0Ns6iVpxrgnx1j+wpTQ2pmUNsSEao/V5C8vi71cowK1gS/rbg37M77NP2+FamoiHnqQR30Y1lSQxVcg8AaP6KBeB+1yiCATXE1c/OUtq8LtYfKEJbW/qt6dW496brWhzuxuYzIz1Z3ANGuPt8lg6EcHgz1HSf8M68H9A1mvwVSmoW8xTfpeLzKLpV4vEHhzndlmWyXwjMItCvHi5v/ZQPw7YTXdDXUzr0r8tr7BCYEKvSuFtK9XsyChWv9xpr7P6+FDXpbuRVCCnQN0ByCd2+5WzVHAtUUnhcjoCgT+mBeAOScxGW1rA7QQN39py6GwwV7LXwat9ufFuj9If72ecKIvVV+HqgOZFnp4mh/KILhXGbN5e5eftbB2+uitR1+xLKQCgb+lghvPtr3h+Eohm7j7/1/7n2a1579kc2+y3EH6Qzsb6sS26/54sEFAm73Xuy/gmM+YqvTXbYleremjjISaPgR0Zu+TfnqBICgAH6pUS5trCHxckrQF/tUSFb62x/pXO+veT3mztQo1bozZtV33x+djKM7kzd5MS6O3HVmQwnW86fxBPgxJ5d6qy0hoR5QFUyAIXhag7zM6u2dvPcGwoLLi9rVh1O8N1mr/cHy1RjPN/c2bTg9EvPQZ7YvMwHklbfTmdDew4pvOY8pWWB+rlxw/lMIq92ca9JrOIPlFHlkgEKRyPfpNK23a25Rhts11Yd8X8an/pvZq/1FMBWswjf3Se2laMP473aMcjGX5WqhcofwBJrrXnD+uweRNuo7uJRlfvPhQ46vQk2n0J3oMs4zFFQgihxAInwG9EXtlWWS8G0V6KQDjEu+xpvgHEhn0nj1X91eOb7DaUWbMal9xrlhDb452hYY/VO+cnHOQHEVESC9DIhqOX9T4BILIRfvbtVaKPS7AnWHye0RatEJ7hZ+tLeiJnZkWHPZedDnmc6YC1eyT/iBxOc5jcsfYSU/Zotm2WfJ6J82ft4Im9oGQia4MWQAFgggXCDrEVLaDzbXnp3Dre7pI3f0/YY+0pXb/Yz713kM15Uc95MV2bzukhIe94y3xGTj/UR/pwAyyuF5I9cPxN5mre4AXHZdFTyAQ/A8g/MbG21qDzis8FqlZgPZhYQQ7Fxc7TK+lcOceZGo00/4QG+jNo8TgtZ0siHR5Er2h45+tCFOrfzGNXx/OEkkrn0AguIRAGxQ97a1Fh8NZgIiyDArrrda9sdP2mthP53stO3917rlKMw1Y6S3BIzDneyyzPXAjeYTITLl154Uw+gUCQXIAojLak+2tTV+EfWLEMP+vsib6kzmv7uP02pz00Z8p55PLroPLnEdPOfRa1qPV9drxuun8IdWb2EWn+q8Vcp9AIEiBNgA0Suyt3/CFwyOlI6B4WA7RTk236uDwgBuPMd5Lt7XPYEct20uBD1TycExuOn/s+qGy2OFOdTy/ymImEAhSDviUakP0OmsvC1A06M4fbMeZ4bqH+YuYowTTwJe8Vc8F8a3NEst97lFMlfowzdnvraAHrHo3x/ei5FA3iWn0pzKURyAQpJHD9CpTzlK21qs/FKYEPQtQRuHdMPvR/A4YERrU9bz00Iz4QBPfbLb8gfOAYTRecXJw/tWHMsXEudfWV6oF04CX9BheIfgJBII0K7ceY6o50lYHF3zi2woJQe77n2ht95+9KNOEb7z1wMzcpdXkoqItkv4SmAa+7I12P2Q7MEyjfDd3RviiBIRdf4c7tJyn13ggAoHA35j4nU3xMvjGCWFfGTjDwJ/37NR5lSNseZ3HosXj6piuV7vgTPYcXpb8TF3u9wbjH8cwdg1T6TYWA57LBEIgQGKK4KRNskgJBAJ7aLHYZkYXWYDADQpCi8MosjXwJ3cZpjn7vFX3H/auOq5ydsfSQuvACyUPZB9Q6sDMAaeH+WByYN6KTB3v0qUHWaAEAoFVcvOvOvNqZ007Fu4IiAlSAFBAYbW1em+nu701rAXpZ4z4ten4ErupB3GvN853yBtadti2tPGlGP7orhi6iunqk7IwCQQCZzZ4He+0KWgGnlz+IAUA/RVOW7lYIHuh7uylB6T9bXan/CHjgdG+XjhXiA5BTtcNsl/tsXrQkUzqEwgETgLrTokmtta2kwq9guL8kcr42o7ef3amXv/xFtlr4rdajMhm3R+Sum47vdBEw9eV8y+vORhO7vpBwun2MNP8P2QhEggE7nCeILpmb1rglwrpgxAA9CMb435Doj+DvCX6A+Gb0u3s1cFBdIOcsNvpbjz8UNSDwI6TO34QKst21KN6ZdcvEAjcxIydTJX72iI9w2f28Lvzz2WN+Y9dYP8XvfMwLFJOufWN9oRv4PzqTWKae8D9+tdVXzKVaOZszT8uJ1PDGUzTd8jCIxAIvIE+TzNlLWxLF+At8vmkwMEKB6zs/qF85xXWNwR4sCPOV9FS2ls52qL1dXnB7XMF3yLU6ucg2x9CSsh8LDgiC45AIPAW4Ru6J3ayAPvDGXRfGliML1oZ+oOhDCCfeSkVVGWAPVYo6kz9XnQ/7T3/kHrYuzvX5x9i+bdTwdW73httLBAIBBeyAMhQ2hkS9KxCHr85f+gZ91HYZcUxlGnrHYdwYcyvLdY/dv9gu19zxv1IF1LLTin8Qeeg2mA9tlfq/QKBwKvAWPESTW2thT+HuQC+mhGA2v8DdhyDcrQj3vfOzZ+82eaACKZ8lTW50M1znLWXqdYY7ZSdcP4ZsjDVmyjCPgKBwB8Y/KatSYHgAtzrJy4AIpXGClusOIeEViri8lA6uNEsiy1/+Zj6PudumyN2/lAczJjNGecfG8/UYIr3hjoJBALB5bIAGMpmZ13cpNDALwFAJoX5Vlr/YjIz9XvBO1PvIMYTX9DeRLsQ6/+guw81ZiyAc+GE88f3NJknO3+BQOAzdUDlk3o/bWvsO7gAsxXi/BAAFFHYaMVBoAd85k6PCEGoXXmNEVqL3taI3/Hr3A12uj/ioPPPzdTqencDHoFAIEgtpv+sM9R21sh1CoX9EAAMtbL7BxO+p1dU/5RTHvyavbGQyCp0X+beuYJ0B5U/jNZ1wvlD3RDyyZigKAuJQCDwqzog1m1wmOxkAfr7Qfb3SytMePRaghHuCcW/X5kq9LDTCw+Wfd0J7nU5wPmP+lj33jvh/BFE9Vgmi4dAIPA/MCMAg+DsyKN/4nV54AZ2+v5z67n3XmgHu6ABbWt3XLCGu4HOlC1MiV1sTrr6HzBEqPdTsmgIBIKAZAHO6em09nQBanvV+UcrPB5uWzB40lG6x9Iru38o4YVG/UbZkfsF69+tcwP5Dox/Oymsv6JANaYBK9zXNwgaINY06XstnjTgJaY+zzD1VAFr1weYOtzB1GYJU4trmZrMZao/RQPES/wd/g0/g5/F7+B38RlQuZz0g/5sucYCwZWzAKGOgCgbLYEPe1UToJrCVvM94ZmZWi72yO5fOavuj9pzkHXGu9f+hswGFnybkwz/O864rA500GUgC0bqdhkoQ131BVM/dR3b3KSfHWRuijfWwVWu0rq8Ap1ycCwy59ZzKjLEq0AzTneZhBaoKP1n/B3+DT+Dn8Xv4HfxGbnKMBWsrj87sStT3fH6O/s9r+dCQKfCSxM5BQJXOwLUu9Bsgd7QmV8/f1So7DXnn07hBoUT5mvExXVE5YUbO3OXPb3/QrWYkja4d27YNWYrat/5w6mgu0CkfZPn6BEkISgEwxgBWs2RTPkra40IdGhAnwELDZy4E2OZwXsJBQyZ9HfjGHAs+auoYxulAzscK44Zx75YAgNBBGKiWk+zW1lPjytcG/a5nrHyYYKC+RMGIc4rfZ6I6mycI3ZdyCxgF+7Guc3Zr3Z3jZxp9et8nywOl3P4KMNM3cY07ivNKIYCI5yrUyqMpmSckYWAhHWPx9W5rNWls3mHJFMgiBwgILbzjn2oUMZLyn/DwpOLzMv+YvHwiuSvDdEf7Kjc7HBYcFjX/dPH2nUK2C16pZTjNWC3jM4LEF3rJulRy5nz+MfhXwkoK5VsoYWtuj7INPpTdc7H5L4Lgo0xn9manbJPYYhXuAA5Fe4zT/5TKNXCGyQxHEOdCXZEfxBUQN/ADccY6mhYZk/N8GJt/8ZzdLAhC8P/dvtTt+jMz4VdPurwQXH6lyO6XpwdQLZDsgKCoMoDgzdj/j2Czs49Yd/rutVU+NrKzrj3E96Q/QWj2sbAHwQUFXq6x67GTgzcAxt6Bheng1HGwUAhWRRUMKmCriFv6GtSuI6un9u8/l4FzhlEwyJ1meolMQ19270SmEBgS1MFAT5Z4eZAGbCG284fogQjFM4aP8EidfTuwO2buOg4U42RdvrikeYd9ZFLspU7mCr1tidlfEHUCCOEZ+7W6okRuRCo875G7QRm7NT9wdB5iMvh3FhlPwDXAtcEwShKBOhwkPZQQRAAXRW88+bfmzNh1V1XhYHyKrxsfmesnG3bJUxXn3D/Bg59S7etWSE4jnep5nxM937b3HniHlbqo3b+eyLX8c85wDRytR5tnLWQOPrkqn7mLsPU6l+a/7PgiDgRgX+BDSRmnNgRVluhkMfNAKCWwu/GTwwytG7tjP9CkDuqCXI2bh5aRNxqb4T6nm2xn9KtNfM74tJ+53XQM/BlXdt3aphSEJErQQsWoQSHsdTiUAR+xIgPdFBr/h353e0ywCIrtUEsnF4YCTt+vSYs2TjH1je4k+ZEvz8keG0u3BCNQRtbxKnw/cHU6wmmyv213kEk1vZt8GSweGLyZt9nZVS0wH9A8Irn1856MNfNAGCTeaGYgnoRdbtmjLpthzvt1GpBfIIjdoOVWusqtajGWJzsl4+pz7ORRejCrn/E+1olD6l+cfx2SkrZijCVac807B1vkIMFguSuDz0ftzU/ZqNbzr+RFfJf8SZaScztmzZ7L1PhWhZa4jIzdb7X+d0/HkJIt2a3qPaHc0O9KyJ6vM9rNUNkiaoPC7P5o8VRO9I9kE9nCaHNIZ0DAj8AOi92WgLhg+u5If37kPHef/RBo+bnhRvW6z8WFq9oPUYYDHzHB1RsU7undhaZ3LFMNUdoVcHAt/Kd0QQ1DNKBuqE4ZneAOQUYYBQKBERLQOBxwLeZ1/qAD77XaWngElbS/xCkGfO5BwQcTjIVbcBWyhu9n3SHidr2ZqbYeHu7sqL1lVNcF/yXGAS/bg/bmwkhSDlHADurXk/qrJ04GoFXMfoTW2WA7xWKOBkAjFY4aPxEElp5Y0gMRElMR2pYqMp3Z5p70PlU9dg1ymFVsqvxD9Z7kOuyeC5R568+VPesi/P1FvAMQnNiyJs64BWHI/BcS+AJLYlt/vn/LSzH74jFKSxXOGf8RKCF7rpE61ktkGOayAUtfExKc2P3X2ecvfo0+rYxGjbIwi0I2lrfqLsnomPE2Xo2G6DuTc4EpqbztQaDOB2B19D5HhvPPnzxMoVYJwKA6gprrOjFe+GlRc9xjhIWmP91lDM+6fz5gDFtS2MeQVLF3sHt0UZQM/5rXd4AwZGixMn6Yt6Aet5LNGGaItwAgccAH2dHg+VzhSpOTP4bGU45mD0BMKndflmRoqk52rzwD9L/buz+5x3UQ2ZsOX+0MyZ9G0wNb3SiNL9aj2oWp+pPQIsB7VehAFXaBgUeGQJWdbCN531/uAxgdUJgVoU7jbP/MTBm4Cvuv6QYyWrDYeavrEVinC5lIG1ta448hiP1fzF4bVjY9YOsA76GrWsncJAbkEuPIUagKtkAgRc0Afqv1F1T5rsBblPIYjMAqKDwgfGXFFPR0Cfp9u6/5XXm0+XYKXe8y3lHiW6KEPHPQtoaJLhQv//RgL2c57QIFTIb6fzd058zZ04uX748N23alDt16sR9+vTh4cOH8/jx43n69Om8cOFCXrJkCd9www2hP+Pv8G/Dhg0L/Sx+B7+Lz8Bn+ToIQCBXsrlaeFe4M3ZbIPhLS/Z2WwOC3lVItBkAtLPC/m+20H3xGCjz2RBqKFBF7T42OixJe0gT/9LH2kn9l+2oJ7YF6aWESiLIjFCb85mDq1y5Mnfp0oWTkpL45ptv5ueff54/+OAD/uqrr3jTpk38008/8c6dO3nfvn38+++/89GjR/nkyZN8/vx5PnfuXOjPR44cCf0bfgY/i9/B7+Iz8Fn4THw2vqNz586h7/RdIABuD9phF50QJyRwD9g4gahqpxugjS3nn0lhofH0P/oiB73qbvofu/Puy8zL/oJ532Kxs21JSDFBM91Ov6na/efUbYVBSsnN3MVUcxRTbFZPOq6oqChOnz49Z8yYkbNly8Y1a9bkCRMm8PLly/n777//i2M/deoU//nnn2za8Jn4bHzHhUAB341jGDduHNeoUSN0bDhGHCuO2ZNBAO4x7nUogBVegMAlFVG0TWfJa6MMMDfcqWfcCip8ZH5qXDumKT+6P6yhdFsLu/+qTKM/dfZcoDKY2MUS8S9aR65Bqvdj6mSplp7U78+RIwcnJiZyx44dedGiRfzqq6/yb7/9xl61AwcOhI4RJYUOHTpwuXLlOHt2D5IoQfKFIudE4QUIXMLkTUwJrW083+8pFLARANRWOG5WPjaGqdEsrbzn5s2Y8LX51gxkE+pPdnaeORYz6P3bUvwrUJ1pxq7gMP0HrGAqVNNTzik2NpZLly7N3bp14zvuuIM3btzIZ8+eZb/ZmTNneMOGDXzbbbdx165dOSEhgTNkyOCda41gtmwHpqu+kMFCAnf0WRpMszFq/jBZGhE8KzDSuH8H2PI2WPKD33D2PBYctrf7R+oUZZKgsP7h/HOX9YxDypQpE7dp04YXL17Mb775Zmg3HRTbv38/v/HGG3zttddy69atQ+fqjSAgiql4I6aRH4pDEjgPtKhmyW/j2Z5iIwD42M5Y3B/crwFjfr3pvv8KPZ3d/YdEjN4LC9ZYWCyrDNA6+EHY+fdc7hnnj10xHD9Idlu2bAkR8oJqJ06cCJ0jzrV9+/ahbIcnAgEwskNtyOKUBA4C5HAbE2d1GcCo5VE4bbwOB+1ut2twmOoWY3hHgja5ASudd2zlOttZIPOU0xrrfm+hAtO/6wN6ipyLJLXo6OgQYQ6tdtjtY4cMNn6kGM4VGY5Vq1Zxz549Q1wHXBNXRwznKq0DwyBLWgs8Jgp0Vm+szLccn1LIazIAGGec/Q82OXqu3WZjNpxh/gYUb+J8YAPJ3wwWav/gRkARz+8LI4SYMDo2Lqer9f2SJUvyiBEj+PPPP48op3+57oL169eHuhqKFy8e6iBwLRDIko+p/e26lCYOSuAEuj9qY7jY+bBirxHDnOGXrNTIZ/zivi6zDRIYbqqjfaXHmCr3Nx/IYGcEbYQpW3y+8z+t+79dcv7Y3YLYB6Gd1atXs9il7d133+UBAwZw4cKF3WsjhHJg+9v0MyMOSmBdFGibndkzRM+bkgUupLDZ+AFW7Ok++xZp+qyFzJ5X5jwqsNnp8Pjit+w8RNj9937K/zX/bg/rhd0lch/S3K+88kpIbEfsnw3CRCgNPPnkk6HOAdfIgpnzqiD+EekOEDhUurVC3P5eIb+JAKCjwl7jB4h6m9tDGepPMa/JXKW/s22NIBpC9S/aQotVxV7+n62OAMZOhH1F5M+fn++77z7esWOHFXGeIHMEoET48MMPh9oHXQkCcpZk6vu8OCiBfXR90MYzvEehrYkAYJHCMbM98rHuj5CdvJmpZDPzvcUDHNYbR+0/T6IdvX+nJYxNR9ZQ28K1cTCdjNQ11PC6d+8eqm2fPn1aPHoatAS2bt0amlOQJ08eTpcunbMtgnkrMA16ReYHCOxi1l4begBHFeaZkP99wTgBsHQbl9n/5zUB0XQPJtoanayXg9jWYKr5gT+o/Tdb5L5AU6qzO2eYhryhpzA6uGuMi4vjevXq8eOPP87Hjx8XD26QKIh5BNAQwDV2NBMANU+U2II29VLgrRHBJZrYIAI+F/bhqbYqCl8Yf6la/cvdqBppc6gwmdwZ4rMaz3Gw918FMWM+ZcplIUWKlqixX/lX2x/qbkUbOOoocuXKxVOmTOFt27aJx7ZkyAbgGuNaOxoEFGuo518IJ0BgK1uJDZf5Z/dThYppCQB6KvxiXCJ3xPvuXnBogBetb7iFKH943KhDi8TVJ5iazDWf3kYqqtFMnV3w48s0Zz9TmfaOOoiKFSvy0qVLQ4NyxOwarvHdd98dmkboXKeA+p5yndwvWwqCOxxo6Ns2ygA7FLqlpf1vVlhUwNxB5S3PNHWr+xrwphXzUNZwcqjRtJ/syEhC9GfYKn9OSkOatt4kG8Ial0RMTExoNO57770XmpQn5oyBV/H++++HRiA7Nl8Ai3PDaTI8SGCPk5arjA1BoFlhX55ig5LQo8ZfJKj/of/ezfR/3QnmB/9gN+5knRCCJTYWuZqj1TU66s80Wse7bIhqXBKYcgdy2q5du0TQx6VOgd27d/PcuXM5Z06H9B3QStr5PiEFCixkLvdpLRfzz+1DCrlTEwBUU/jSOEu+093uqspBfAhSsCbPK3cZzcZ3TNjmpGYo26j9Y56AH3f+KL/kKOmIIyhYsCA/+OCDob51MfftscceC4kHOdMeWEp3lwgpUGB0NPlppg632xhL/mmYy5cig4JQB4WDZqf/FdKMWjcvNBy1acY8as7zDjko/PO2+fHFF2YzQC/fbzt/ELQw1Y3s14QTExNDDkfMWwbxoPLlyzvTHliiKdO4dUIKFJjF4Ne1HLXZZ/aAQruUBgCx4ZGCZg+mRDNNwHPzIiNVb/KcYjJrjXknHV7NkeYJI0idj/rIfy/NzF1Mlfup6xFjvb+/Zs2avGLFCunt9ygv4KWXXuJatWrZJwdGq2et6iD17O0RpyUwhwkbmIo1stEOmKSQISUBQC6F5cZfnFpj3GeXm2b/x+d3tvd/4vdM+auYX9TKd9NpKL/1+7e8zvw0x0s4/zp16oSm1wnZz7uGe4N7hHtlXTQIJOI2N0kpQGAOcw8y1Rhu43l9RCFnSgKAYgobzL4w8Uzt/u1u2mze70yxhifmlW7rLCmowx3miW7IJoz62H8vzPj1TBmzO+L8oep39uxZ8bIeN9yjdevWcd26de1nAjBcys9qmQLvaZhgaJnpDjWidQpFUyoAdMYsUa5suL3MxQvc9znzmvkd7nTu+GfvUzv17uYXskp9mRb6jPmPYK54I6sLPHaRcP579uwRz+ozwz1DycZ6EFCyOdP8Q+K8BGYw5E1Nxjb7nJ5QqJSSAKCf+fp/E+en5P0d9SbqTgRjO+doZ3cAg141P9gmNqtmNfuptQlERcupfziO2rVrh3aTYv60NWvWcI0aNewGARdKAdfI+GCBIX0XOxubHikJAJaYTTErR1lloLsiGguPaUlPk0xxZDXwuU4df9MF5sl/CW3UQ7fNXy8JuiBw7S3u7KpXr85vvfWWpP19Xg54/fXXuWrVqnazAGjJHblanJfAQDvgGZ2RNd8OeF1KAoBVxqPklovdvbDj1prXzQep0anIf/KPuv3ItIAROhj81PoHHQfLrH+MoH366af55MmT4kV9briHaBEsVaqUxa6ADLqFFh0p4sQEaQXmApjPbr6WEg2A34x+eeY8WqjFzYva7SGmTLnN6oODU+BI6hxa0avMk0PyVVI7lw/9JZYBISnTGggXIW/evHzPPfcI2z9g3QG4p7i31oKAjNmYuj7grsiZIBiAXzHqq0LYE/btV7QE4+N/obyH2oabSnHYrZtMn6MW71T9f9EJpsZzzTP/a49Vn33cPwMzIL6SJ9HaIp4lSxa+8847ReEvgIZ7inuLe2wtCMD46QnfiAMTpA1oKzetVqt9erI6AXoZfzEK13aXZIa0MYb1mDynCj2YZu52rj+0UE3D+gUFmXo/6a/dP6YUWlq8o6OjecyYMaLrH2DDvR0xYkToXlubGtj8GskCCNK+YS1Uw0YA0CU5AcD1VgSA3Lyg0Lc3qp2vXvRW/9Ka/E4c/9ivzLcvFqnjr5olFCRRSrIUALRo0YK3b98uXjLgtnXrVm7SpIm9LEC2wkyTN4kTE6QNdgSBrk5OAPCW8S/u+qC7FxO1ObS7GeU0vOjc8SPYMC1lipZIP2mZ1xxlbdEuXbp0iC0uu//I6Ax4+eWXuUSJEvaCAEwbFScmSAs632Pj2Vx5JecPucAfjH/x+K9dbP87ytRwutn2P8gJQ4XOKXWogjXM9/47Ob0wrRjzGVN8ASuLddasWfnmm28Wxn8E2YkTJ/jGG2+0xwfIWlBn7cSRCVLdtfaVjWdzo0KmywUADRR2mmXHZne3JjblR6aE1mangdUY6dxMA5CKTMsXg/3vpiZDSrDgqOZbpDNft82YMSOPHTuWDx06JF4xwuzgwYM8evRojo2NNb/Q4lkNqWseE0cmSL0eQKzxAPUXhdqXCwCGGm8BxATAxS46m5EfMWUrYnD3jJkGtzp3/O1uYUpveJFqtsA/2th9nzV7/y5S+qtfvz5///334g0j1DZu3BiSeraiFAgWd6hMKCODBakhAp4LC9cZHw086HIBwDUKx41+aZ0J7nUA4CL2/I9ZVaWcpbRes1Ojf6H9b/L4sdiN/sQfL8HsX/XY1Sg7u/9nn31WvGCE2xNPPBF6FqxkAaoNZZqzX5yZIHVrf+2rTD+XxxQWXU4AaJnCOaNfCuEWt8hm6HFvOs8we76uc5oG039mKlDN7PFDDXHub/7o+8fsg2xFrdRpe/ToIXV/sRAfoGvXrna4AMgCDH5dnJkgddlPTH41+0zCtz/8TwFAdoVXjb8EbirNzTuo68fGds/p9Oc5VT8f+Ip5B1hztD/EfxCk1B5nQxObc+fOHRrvKyYGW7t2beiZML724dmtm6TXIXFqgtTMPDEfmL6sEH+pACBR4RPjEsCTvncxhbyXqWB1c+cDfWbHZhqoCLD51WY1oaH+1+9FH0z+U+c++mMrff9xcXF8xx13iNSv2H8NmaBbbrnFTikAgltjPhcugCDlmPQdU1xO08/kRwplLhUANFX4zrgC4PQd7l3AWSoAyG9wElhcDrUrf8mZY0eXAYbemLwfmKA34WvvP/hQ/Wsy1wrxr0OHDrxt2zbxemJ/sR9//JHbtGljhxCIQF7UAQWpGQ1scgOrsUGh0aUCgD4Ku4x+WaXeahe+z8U08gGmMu0MRvP51U3Z7syxQzsBegMm70eVASoo2uP9B3+Oum85SxpfiIsWLRqa8ieCP2J/NwgEgRBYuHBh8wFA7jJazlucmiClJGiTJez/tQL2uFQAMFHhqNEvazSLacERF3vID5tlUhauo3WanTh2tBBlLWw2/Y/2RT/sRHo9YVa4SSF9+vQ8aNAg/v3338XbiV3SfvvtN+7fv7/5WQHgAqCdVZyaIKX+q8E00wHAYYVxf3f+6RUWG58CCAlgNwVn4Kx7LDM3BbDpfOeOu+3NZsVvML1w8Gv+YP+XamF8F1aoUCFeuXKleDmxy9pzzz3HBQsWNJ8FgBiZ8AAEKRUD6rjUxlAgzARId3EAkEfhUeMKgANfdv8iTt6sHEpLM/V/p/gMSNNXGWj2xpdt7+5I5mRLYK41Pgs7Xbp03L17dz5z5ox4OLHLGsihnTt3Ns8FyJzbH/wbgbcwYKV5JViiB8Ky//+1BIXXjBPORn3ogSjqNFOHO3VAktpzgRIfRtE6lT5P2mhW/x8ZkAZTnCtfpAUYpxoTZ/SBz5QpE7/55pvi3cSSZa+88kqoW8ToeohnutX14tAEKcOID7R2i/mhQMUvDgCqKnxm9EuKNvBOxIude7UhypFnTF39rnxXpqlbnTteBE5pCVj+jky59HQprz/s6Jcu1UqrFRp8Fhs3bsynT58WzyaW7LbAevXqmecBlG7LNP+QODVBCjKi6/TodrMBwIcKFS8OAOobnwJYtqOzTjM5pQAM6EiJsAzG5pZpryczOTXPAN/T5xmzThCM+qFvef9hH7ZKRbuljbf+gfkvJpYSQ0eA8TIAugGGvy9OTZCyYXYIHM23Ata5OABopfCr0S+BhrubLYCXIpehLbD22DC5Luryevmou9SforMHThIZrz7J1GKx2RuOXtKp27yvfd18UeqyNJcBdnJ79uwRjyaWItu9ezfXrFnTcBkAQmLXuSeNLvAfwAczrQejJ/42vzgA6K5w2uiX1J+snZnnpiydZRqhovCKvZjyVdR63VnyM2UtpAf94O8wwGiaSwJGaP2o1Mfs8B9kMbyu/gd9hbIdjD7oGPW6bNmyUI+3mFhKDITRBx980Py44HKd3RVHE/gLC49rOWnzQ4E6X3D+0QrDzU7CSq92sdf4Q3Bm9GdM/V9gGvIGU9IGdcGPuq+BX8CgemF0Bk1g9Pq9GPSaCsaKGt/9f/vtt+LNwrZv3z7eu3cvb9myhTds2MBffPFFCPgz/g7/hp8R03ZhXLDRtRHtuE5NExUEYygQMqPpjE9EHXihFTBOYbbRD4/NxtTxLrl5qcGMnWbbPjJkYer1H2+fMzJFrW80OvYXrX/Tp0/nI0eORDSZDYNuHn30UV60aFFICAlCN+3atQsRI6tVqxYC/oy/w7/hZ/Cz+B38biRPTPzjjz94ypQpZrkA2BxB4+PqU7LWCZKH9rfrddxsADBFIRYBQFaFfxsfgAE1N7l5qegA+NjsjYZ+wYQNHq9z7WWq0t/oeefLl4+ffPJJPn/+fMQ5rm+++YZvuumm0Mjj6tWrc968eUMBUUqCJ/wOfhefgc/CZ0aa4dlZvnx56FoYfSerDdYyr7LeCZKDno8zZclnOgC4QSELAoDcCv8xO3O+tKS5UovO95q90dmKqN3GaY9PvfqeKX9l461/3333XcQ4qz///DOUsh45ciQXL16cs2TJkiKnf7lgAJ+Fz8Rn4zvwXZFUBmjYsKF5Uu7kTbLWCZJZHn1V89PMBgAPXxADKqjwjvEHHK1zcvNSjpqjzN7o8t28L/077B1zcs0KGTJk4MmTJ0eEozp+/Hhod45yR65cuWzMD/8LIJM7Z86c0HdGQnkAg6OSkpI4JibGLC8n1A4o3QCCZOCqL8zywjQg/JcfAUAxhW+MfnixRs5NzQsaitQ1e6PRduR1vevWNxjX/X/xxRcD75x+/fVXvvnmm7lkyZLWHf/fge+86667QscQdLMyH6Dtrf5Q5hR4QAtgixbWM/sOr1EoggCglMIOox9eug3TPFG8SjkZ7pT5Wo8X5jFcDotOMCV2MXrOtWvXDrxjQnljwoQJofS8087/AvDdkyZN4s2bNwdeE6BGjRpmrx/akPHsy7onSM5Y+4RWpt/f7QolEQCUUfjd6IdjQZfoNuWYuYspNqvZGz3xO2+f8/w/tA6DofPFKNdx48YFlvyHssaaNWu4U6dOoRkHbjn/i4OAXr168fr16wNbcsGzNGrUKLNjgsHNcXNUusBfG8NynUy/uwfDvp/KK/xpVPO6ygC5aanB2DVm2z1Qa5yz3+P1rS+Nyh5DuOWpp54KrCN65513QhkOozVpA5wLHNNnn30W2MDrscceMysKhHVy/HpZ8wTJ40lV6m16Rsq5sO8PzQEw63TqjJeblhr0X6HlQk1qj3t9+Eirfxl1RvHx8bxr165A7vzh/DNnzuwZx/934NgQBAQxE/DTTz+ZL7e0vUXWPEHyUGs0UzrjQX9oHkAH42Mvm8yVG5baFkCTWvglm3s/zWg4tVW5cuVA7kCR9scu26vO/2L+BcoBQcy+JCYmmr1eFXrImidIHhrNMD4nRaENhSUBzSrPQdVNblrKAclHZFBMDmRadNzDMpfnmHKVMfpQo/4fRMIfav5eSvtfrhwATkAQiYHQQTB6vfKWl8FAguSh5WLlW41n//ogAEgy+qEZs3lz9jwGcPR9jqnpfKbqwzQLt8YI/d/D3/OGo6w1xmg/PDWe7c2BTBcrABrueoD6X9Ba/cD29wLhLyWlAHQHBK0TA4OlzCqmFtCzP8TBCa6EDneaJ4gTXYUAYJHRD82Uy1sywCDBoc88XyV1bLl1jf3COGA4W/w3XkS0WUCG182IPLGzJgeZuhcdlzJde8a7D/WYz/TzYuh8M2bMyD/++GOgRH7Q5+9mq19augOgExAksaBNmzaZzcLg2RfBNEFy0OMxpricpt9TzACiu4x+KHZ0g1/3xkWb8A1TyWYp081vca07Ot0QxClSz7wGgJfHAGNIkcGotn79+nzgwIHAOByo7bkh8mNSLChIMwT279/PtWrVMjg0TT37fZ4R5ya4Mga+xJQ5j+l39GYEAMuNDwLCTtrtCzbxW6ZCqXhZ08fqLgan2fOz9jAVqGaWjOmF+3DZDoDr9XEaOuchQ4bw4cOHA8P6h7yvX53/BUA2OChdAZgOiImJ5t7RTExtlohzE1wZI97XmWqz7+eDCABeMT58JmmjyyN1f2FK7Jr6dDraLdrc7Owx45qBFGRs7nhxpvHrvD/3wGBry/z580Np8yAYhtA4oe3vxOwAnEtQSjKzZs0y2DKtnv0648S5Ca4MrOVZC5t+P58j44OA4Him/+zehbr2nO5CSGtqOUdJZx3oqI+YciWYuw/IJnhZBRD3qUx7zcUwdM73338/nzlzJhDOZsSIEb53/heAcwmCnT59mpcuXWpQDEg9+2U7SieA4MqYupUpezHT7yZ8P31o9EMxttBNZuukH5hKNEu7Y3Fa0GjYKhV0lDB3H4rWZ5q82bsPNHgWOEZD54uxta+++moglOhQN8f43aAEADiXIHAB8GytXLmSo0wqshVr6PNOgPM6gAnhz//92Q+TDv9y3H96+7jRMZXDOB/ocwQAXxr9UOxi3RSfAbEsc14z51Kkjoq8tjk08/kVFeEVNSgC1EJHjV5OaaEzw9D5FihQgD/66KNA7DRvvPFGXzL/L9cRgHMKgq1evZpz585t7vrkr8I0YYO/nD4c5YLDTEnquNv9W09/jc+v+TyY64HAHgqfyEDi57yU4cAAJrSEw09AhCx7cS2wkzG7uheVmRrN0twpdI8hS+mV4553UG+uzb6b68j4KOBcpd2bcoUbBmKZqVY67MjhmJ049n4vMGUtZO4+IL0+/ScPk1o+YMpd1tj5VqlSJRAKdGib69GjRyijYbNPH7tyXDMAf7YpMYxzwTkFoSVw7dq1XKFCBXPXJ0+i98m6f3H+aqc8/mumhtP1huUfsyFRumbdcAbTuLW6y8nt40Zpuv1tujya7jKDnRAMVOqj136vTGxEIGWyRKyxEQHAD0Y/FPrz15x17yLVn2ywpVFFsz0fc+bYez9pluVZvjvTjJ3eXUiGvGU0om3evHkg1OfgYKpXr27FEcfFxXHXrl359ttvD6WyP/nkkxDw51tuuYU7d+4c+hkb3432uSCUAX744Qdu3Lix2Q3T8Hf8EwDgvS3RNPmbLGitoMwx6FUXJ8Se19mIyv2ZYuNTxgNDhuOa097IXOBZMftewveH5gIbDADKupfymXOAqaZBuU6UEro97Myxd3/UXOkCqNxPtxZ6dSEZ8JJRUgukcrdv3+57B/Poo49y3rx5jTvgnDlz8r///W/esWPHJb/33LlzoeuHn8HPmv7+fPnyhSbq+d22bt3K7dq1M0iaRpbxNX84/9Efp75VGR1Ooz92zy8gI5qajiOIx0FQzW09FWRQcpcx/V5uRQCw26y+dQV3iWXVhpgVNYJjduLYu9yvHzZTxw654zn7vLuYQADFYFsL9Od/+eUX3zuYRYsWGU//w6Fjl3/ixIkrfj9+Bj9rOgjAOeHc/G4///wzd+vWzWDbdFGm/i943/kjfQ611LSUVwtW11lap4+99ti0Saxj5z3kDffJlgZLpmH8jADgoNEPxU12jSm5m6mKQaEOpORBFnFK6xlKhKaOHQ+9l9nFPZbpEouh8x08eDDv3bvX184F2vkDBw40nvbHrj45zv/iIAC/Y7ocMHz4cD548KCv79Hu3bvNigE5ucakhVsFhdQMaSSmorMKHC0nmfYjV6d9Y4WgB7Nj5v3u7n3IV9F0ALAXAcAxox8K5rxbF2jmTk3eMHUu2KH2edqZY297s9lhD+BCOK1m6GLGY9SoUb6XAUYA069fP6MvOWr+/5T2v5yhHABOgMljQXDj9wFB+/btCwUyviwzphbTfmIq28HA+UYxFW2gNiYHnSP+1ZtoZsIq0u9D33L3PphUitX4DQHAWaMfipYQNxUAK/Y0q2rY91mHxj1el/YI+++TAN1sx7xixuMOzbY1dL5JSUl86NAhXzsXDDIyWV8Gsx+Ev9QYOAFo3cOAJZM8jW3btvn6HiGDgZHTxt5TDHjpdLe3A4DBr+l2ORPnC96PU7Ni4A9AQDQlrY5NmpvD1QrXNh0A/EHGGb/oP3ctAPiZqUIPswFAv+ecOfZmC4zq4lPzq73TwnIpQAM9Q7yx850xYwYfPXrU185lw4YN3KhRI6MCPKjnp9aefvppLlTIXGsqzg3n6Gc7cuQIT5061eBAoGyaae7ltj+Mdzc1phxZzjY3OSeulssgcQ7S5XMPuHcvTAUz/8Nx8wFA6bbuElXQ/maSoNPPIYIOBCiiY80dO0Yge6F95Z+AmqLBgAdzAPzeZ/7FF19w1apVjWojoM0vtfbxxx9z5cqVjR1PnTp1Qm2OfjbwI+bOnWvuPc2QWYvmeLb+f0bvfE2dL0R3msx15tj7v2hWPhfl5ZkutlanZLJt8nDGfAAApqhrJMA9TFUGmJU1dipd1WyhOYcIcQ6kFb2sMd5SAgAJACQACE0ERPnPq+/p1Sf18RkLANQmp/Ech8TVntNZXFPHXqGnLiu4FgA0Nx0AoPxP541+KEQi3LpA8//QpA9T5wKp2rFfOnPsHe/S9UAjabZ4pl7LvV1XbLskZaIcUgKQEoBHSgDTpk0zWALIqt6FW7z7ni48xtR0vtkx5Sh3OtVqnM3gBD10ArgprmapBHDKbBdAPXfbVVBPS29oZ4mIy6lWuqFv60mKpuRFh7/n7QAg1PYoJEDbJEAo/IHQlxoS4E033SQkwL/Z77//zuPHjzdLAoTQjFffU2yqGhgMeGIyM7W4xqEA4Cmz8upulwDMkwAPIQA4bPRDC9V094GFfrOJqUloHak73rk0OoZP4NqZmgMwbbu3A4CuDzBlljZA222AaOVLjUKitAH+cxug0VHNmfMwdXvIu+8pWvbqGOx6QKeTU5yHXk8wxRc0q646c5eLbYBVTQcA+xAA7Df6oZio5PbYxMTOlxlSkQIJyOHvOjthC7Wx6Ji0k4oQYbumu51cIaDHRAhIhIB8Z3v27OEBAwzyjLwuBAQ10RrDzZY80AHkwzUmxC9zU14dcspmA4CdFP4fs7MA3H5okU5PS/sHWl4azXRhmNGRtGUBoFiF3f/sfd52/gD0FbKZlQLeuXMn+91ECtjbBing7t1NdhoVca7TKLXqqpX6mjtfaH9gIp8jWcYHdYYlCPLqi61IAW+j8EAAs9MA3Z6jjN5V1NUy5Upd6r9MB/dkdDEaFDX81Fx7KEWN+cwfg0VCw4CKG011//TTT753MI888ojVYUBI7V+KEyDDgJJn4DC0b98+coYBgfWe2MWw8JFDnIfO96bOB/wTao12zy9cfcqspsFF0wC/M/qhGJyA1hG3H1z0wLe9NWVOBumpqoOYJn7vrF713/tuB77CVKxB8sU3sPNH98WQt/zh/ENZGrPjgFu0aCHjgK+ATJkyhQKlW2+9lZ977rlQmx8Atj8If/g3/IyMA/5nwzjgJk2aRM44YHCJElqbO1845C73OSQ3fp/ZAKDuBPfk1RceVc9Kgun38hsEAOvNBgDqIBcc9cbDCyU8iEFAm+ByIjvgC4A4CIWq6b+43z+P0Y9j12jlqSvNB0BKrdYYpvHr3R9ZmRKMWG00pYWe9/Xr1/vewUDLACnmqLRyWK7QHVCkSJFQjz+AVj+TbP+/Izo6OkRu9LtOw4UArXx5g7VYZPvcGpObHEz5kal4Y7OzD5yasNrzcc2xMCmv7pa66rxDRjdMYaxBAPC50Q/FQbo9NekvO+qzyqnvUA/dMj0qOF9l7TTRj5qzpI5uWy5mGrdO97x6SYITDFwIEdVNYipcRxNaIByChxpDNRpM1f+O6+1l0Z9LYfw6rbNgMMX84YcfchAMGvxZsmSx5pCdRnx8PC9ZsiQQ9+aDDz7gXLkM7irzV2GasMG77+mkH5gK1TI4YK0QU7/nHcoyrtIZFiPiaun0BtGtdRZdYjlLmn43P0EA8IHZAKCkh0lo5/UNhHMNIfzf13ndeZ7/37H66rgvg9m/qiCmvlGS2UsvvcTnz5/3vZNBqhwiPkEJAHAuQUj///nnn/ziiy+avT4Qd/Hy2O6kjUx5K5rlPECj35E1Zl9YPS/KzHEPfNnFSbe79DGYfTffRwDwttEPRc196nb/OiaBc6JN6Fggc6nupUuX8unTpwOx0zTaa+4ycC5BsFOnTvFtt91m7tqgzFO2o7ezdygtmkw9gyR+1RfOHT80B2IypX33j9ZyN2WAJ29WvrWo6XfzLQQArxj9ULR2jf9aHJzgyqg5kildjLFnD3LAx44dC4Sz2bhxIxcoUMD3zh/ngHMJgkFqevLkyeauDzQ/ILLj5Xd07FdMWQ2K6eStoMsKjg2I28FUsEbajjlLXqaey90N1MAJM6lqqPESAoBnjH4o6tMjPxTnJkjGQKDFRgcC9e7d2/dywBenm2fPnu37AADngHMJgkEGuFu3bmYHATk1Gje1uOpzczNKLrQqO62mh5bj1M4dSRfNVH8K04LD7t4HiNKZFDXSeAwBwH1GPxQsz0GvinMTJI+la3AgULVq1UJSrUEx1M1LlizpW+ePYw9C7f+CQamxQoUKZlXxoFfv9W6d5LYjJwfQs4fgmdMt4V0e1OquKT3exK6ajO26bsoKs6JGGrchAFhs9EPRd+llaUuBdzD6U6O7C7SboU87KIa2ubvuusuXHQE45oceeojPnDkTmPuBUoZRlUaslUjtepmng+4po9Nim7iTSse5YEAa9FIwj+By3CPs+hEsNJrh/s7/AtA6GWdcoGs+AoDJRj80YzamzveIcxMkQ2Z0D1OWfEYf6kcffZSDZNh1Tpo0KdS77xfnj2PFMft98M/f7f777zd7rZDSRXuXV99PqM+ZHAUMMh0m6rmtbNj6Bt3+Dc0a+CscV/qMeoedryJT+e5MfZ52PlNxpempV9KESTnGIQAYbPRDEV21vlGcmyAZWgcqKs9pVt1q5MiRHDSDwmHPnj05Q4YMnnf+OEYcaxBUGf9uGDhlfG6KlzsAoItSub+58wXht+F072w+oKECWeLmizQXo9vDTCM/8mZQ1vI6PejN7PvaFwFAB6MfClJXk7ni3ATJQ5l2Rh/qxMREDqKtW7eOa9eu7fkAAMeIYw2aQV8iIcGwFCs09r38biL9XaSuufNNH8vU/nZZ81IDDKdLb1ytszUCgHpGPxTDdKCZLDdNkBxgdLFh1TlMbAuagUn/6aefWtPqNzVrAMcYFNb/xYYhQMa5GEhFe/ndnHfQLPEMXQ9OqQAGDZB7j44x/c7WQgBQXuGcuTpPtB6oIzdNkNzphwbFgGJjY/mJJ54IZBYAu1A4WOyyvVQOwLHgmHBsQVBivJQtW7Ys9GwZFQG66ktvv5tTtrDx8vDYtbLmpQaV+2qugrn7cVIhEQFAGYXfjN7o8t38NZhG4OIu41Dq2nMu0wkwfvz4wDoi7K6RYked3QvEQBwDjgXHFMSd/4XAa9SoUaFnyygBcP4f3h/ZbZogPnu/rHmpmWdjciSzxj6F0ggASipsM/rhqOt6pX1C4G0sOs5Uuq3xOnTQGOiXIgaCae9miyC+G8cQRMLfxbZ7926uUaOG2etXrrN+9r38bra92ew5Q8lONoap2CT9zpTQxvT7u0WhBAKAogrrjH548SZM03+WGydInkhH86uNPtwYb7tixQoOuiHIgU6AG2JB+E70+Qc90II9++yz5mWZW12vx357Wqp7lNlzLlJP1rvUYOo2PTTK7Du8Nuz7qWB4KpC5D4f2Msa9ys0TXLEV8DzT4DeM1rdQk54yZUpgU9J/FwuC2h4kd52YHYDvwHfhO4Mk8vNPdu7cOU5KSuKYmBiz/fBD3/b+CG9s5Ew+PzWGy3qX2jkAkFA2+y6vUiiAACCP8XkAmPiEB1xuniC5I0fxzBh8Bhs3bszfffcdR4oh2IFSHSbvYfwu0vNRUVFGOBXorMBn4rPxHZEQWF2wDRs2cMOGhndfGIgz8TvvZ+biDWvPd1wqa11qAL2CXAmmA4DHFXIhAMimcIfxWk/vp+TGCZI/6xrqWwafwfz58/NTTz0VWDLg5Qy78xtvvJG7d+/OtWrV4nz58qVIwhY/i9/B7/br14+XLFkSKE3/lJD/li9fznnyGNZgr9ibadZu73cAmJaexVwBWe9Sjl7L9ZA9swHAEoV4BABxCnOMsz07SbQnSAEREHoABssAcGLTp0/nI0eOcKTahfLAY489xosWLeLhw4fzwIEDuVOnTtyoUSOuU6dOCPgz/g7/hp/Bz+J38Lv4jEi1P/74IzT+10Qm5S9t0qj/Lzrh7XcSA91MSs9CAwAyvLLepUIG+A6jQ9PCmKoQiwAgWmGI0Q/H9KgWi+XGCZKJ80wDVpqdO65Qv359/vbbb1lM28GDB0OkPYjaILW9du3aEPBn/B3+DT8jpg3lDgRIRtfGbEWUc33F++8kiLnpDeoe5C3PNPeArHWp4UhBqjhdtMnn8LzCAIV0FLYuCieMPuiYoXz1SbmBguRh8mY9oMPgMwjhFqRwz549K95MLEWGZ8a4+M+FFumpWz3ed35OHWd7LVZkTBumq/d1Dzw5j+E4U92Jpnf/RxQ60kXWXOEXo19SbTDTnH1yAwXJjHT/1JPH0ptdcBs0aBARrWpiZm3v3r1cr149swsvtNyxm/N6LzxIufkqmT13vNteL3t4cmLqXqYq/U0HANsVmlwcANRW+Nrol5TtqPsX5SYKkoshbzDlNNvTDi7AypUrxaOJpcheeOGFFBEnkwUwuYeu8gHp7EmmeIPlOGQSej6uMwuyzqWQjPmj8YFpYQ2AGhcHAJgH8J7RLynagGnC13IDBcnHnANMpVqaTT0qtGzZMiJ61sXMGJ6Vpk2bml108UxDzW3uQe9n4jDN1eTkuUy5mEZ+6O5Y4xHv68609rdphcMu92mp42nbtNSuV+8H9HSK1LGhAVDu4gAAikDPG/2SPOWYRn0kTk2QQvLRIrX4xBmXrF29erV4NrFk2XvvvWd+zgLGpGOmu+eD8P26TdG0AuCk750/F3DQhrzJVH2o1l5AKx0Cm3QxusMhRwm14WjB1GyB1mXwYmlmxAc2NACeVSh8cQCQU+EBs62AOZgGviwOTZBC1asvjQ4HulAGQItbJAnYiKXO8Iz06dPHfPofz/T49d5//zChsFBts+deTTng2b86XztvOJ0pe1HdlXbZKYUq2MtTnmn4ux4cyLRCHZ/xFsD7FLJfHADEKPzLuHRolwek7iNIeUtgiaamH/iQkt0777wjHk7ssvbmm29y0aJFzcsoo7R13Xnvv3tIkyNlb1L2uO0tDvoBdQ4Tv9d185TqisSpTevw97zjszArAuqJZp9FtABeG27//4tND88INvdljWczLTgiTk2QMvR51nTfa0jLfdiwYdLnLvaPduDAgVCmKH369GYXXTzL/Z7zgSDXCabm15g9d6TdnTx3lDAq9EibTPOYz7xxPzBRt8E00wHAUYWJdAkbqLDX6JdV6iOtgILUjb8sUMX4LqxIkSL89NNPhwa8iIldbHgmnnjiidAkSeO7fwxywTPteUnuncp59jR77oVqMl31hXPn0O6WtIvYVRmgAwm37wfKJmkJZi6NnQq9LhUAtFD4wSz5ow7T9B3i0AQpFCI5y9ThTqPSwAAkXbt06cLbt28Xjyf2F4MSYseOHc3K/l5IgXe6x9tM8wuY8A1T7rJmzz+xq67HOxXAQHEwrcecvRhT/xXu349pPzEVrG46ANig0OhSAQBaAT81+mVZ8jFN+kEcmiAVYiQbzIuRKGTKlIkffPBBaQsU+6+dPn2a77vvPo6LizO/+89fhWnit/6QnAVjPtrg2GOw7etPVp/tUE29x2NMsdnMzGuoO4Fpnsstm+hMAC/B7DP5oULCpQIATAV8xfgL4Gb/p8DfA4IwNCVdeiuEwE2bNonnEwsZxkZbSf3DAba5yR+S6DhGcLaM1v8LMvV5xjn54oq9zGUNi9Z3P3Ab+rb5Z5JohUIm+gd7SOGs0S/sfK+OLsWpCVIK6Ejkr2TjJeAxY8YIF0AspPmPCYg2njEqUJVp9Kf+eNcgUITjNZ39cGruAVRnCxsUzAEZcOwadzMymAJo9pk8o3A3XcbmhFmC5r603kTva18LvAkMD6kzzmxaMoxs2bJJW6AYv/HGGxwfH2/e+UdnYKqbpJncfnjXoJRnsvMGO3EQ2JxqqcOERQj7mDp+fJabwRt8Zu2rTD+Xh8Pdfv9ofRX2G/1STHhbLFoAglQCYlI5ihtfoEH2at68OW/evFm8YITa999/z02aNDFP/AMw02Lwa/55z2qNNj/4CDtYp44fpZYMWcwq2TrZvfD/AoBzNvRQ9in0uFwAUNv4VEDUgfzAgBV4EwuOMpXrZLwjAMiYMSMnJSXx4cOHxRtGmB06dIjHjh0begaMO388q4nd9ChXX2TaDmnmu8lrEBvPNGGDc/3yNUep7zUYyBVvrAWF3OyEMinIpPHz34cA/d1yGm8FxE2Z/KM4MkHqMewdpiz5rdRps2fPzrfffjufOnVKvGKE2MmTJ/mWW27hrFmz2qn9Q/xm5Gr/vF9dH2CKyWT2GqCG7hT3Cx1DxZuYPX5kROb+5mIHwLc2ns0f/i4BfCl73/gX91wuTkyQNkJMnfF2FmuFxMREXrVqlZACI8BwjyH3W7ZsWWvPU6j1zU/dNjYybOgocOocBr3GlLWw+fKFm+T1bg/beDbfp2TY3ca/GGQYcWSCNM3F3sKUo6S1Rbtdu3b8yy+/iIcMuO3YsYNbt25tz/nnKq0FXPzyXo3+xLz4D1p3nZoEey308u8y2y6M6XuDX3eZkzHGxvO5NDkBwFjjX1y0nnQCCNJeE2t3qxVdAAD671OnTuXz58+Llwyo4d5OmDCBo6Oj7Th/dKtAwdIvnCfscKG1YZI8d0H6eO4Bh9oXfzPPli/ZXG843FzrCtWy8YyOSU4AUCs8MchgS0Vxpuk/ixMTpD0LgKlqlnZvaA2ESqBYMO3++++3V/cHSrdVu/9t/nmfZu5iKt/NLHkOaDKP6eoTzq0JhWubJXDWGK4n8bl1X6CdYJqUqX16zeQEABgNfMzol2fOwzTgJXFggrT3xvZ7nik+v7VFvGDBgvz444+H5GHFgmG4l4888ggXKFDAnvPPWkjPbveN6Nl53WKb3fDo44zZmUZ84FwGY+gqrbho6vjBvO98n7v3Bmtcptw2NACiKZm22uiXZ8jM1GKxODCBgXGfBzRDF0IrFkmBL774YogtLuZvQ3fHCy+8YJf0lz5W85zQTueX92jhMaamC9SO1/Duv0w7pmnbnTkH7NIbzTLM4UhgGrfW3XvTbKH5roxkEgAv2M1m+2Kj9YhF0QMQmFIty5Nob0FXqF69Or/11lshqVgxfxru3dtvv801atSw+qxQvopMoz/21zs0eTNTsUaGyX9qnW9+NdOiE84FMUbHhkfp/n+njv+fgppKfW3ontyUkgCgl/GXBKpGqDmJAxOkeXDJKaaWi21EyX9RCqxduzavW7dOPKlP7auvvgrdQytKfxcQk5mp9Q1q4T7tr1LagJXmyX8oJwx0sNSb9K3h6YUqgGkw1d17M32HDkLMP6s9UhIAVDQ+EwDCEH4SxxB4G/N+ZyrT1urOLl26dFy3bl3es2ePeFOf2e7du+07f6BcR3+l/kM756NMFXubvxZl2msH5tR5tPu3+fkN4EW4eW+Gv2cju3ks7NOTbYUVPjN6EJlyMnW5TxyXwGy0nL241QUeDgRBADIBUg7wR9rfkZ1/SO8/gWmGD7Oa6NE33U4L6V9kQq5ziASJIUOmd8px2bX0uJvEzE53ayKl2Wf1E4VCKQkAcig8aFwSGApZbtZXBMHrCujzLFOWvNYzAbVq1QpNjhNioHcN9wYqfzVr1rTv/LPkY+q/wn/6JihVJHYxfz2Q4R3/tXPnMekHfQ9Mt3G6TcysO8HG83pf2Kcn2zIoTDSfImrnrsCCIIClgENMjefoThPLmYBq1arx008/LXMDPMr2f/LJJ7lq1ar2nT+eNfS6Y1y1396XkR+a32Gidl59qAouHCR5Y6dsmsPQdonLxMxNTAmtbDyzSWGfnmyLUugU7h00mDIrxTTiPXFaAvNiIOU6W5kY+HeULl2a7733XlEM9JjdfffdXKpUKev3P9TRhB20HzcyIM9WG2I+/Y+AyEnpXJxHpd468DAZxFz1pftDz8wLAB1S6Bj26SmyOgobzUaKMUw9lokssMB8KWD4u+Y1zf8BefPm5aVLl8rwoP9r7zqgtaqO7jx670149N57B+m9S2/SBKRK7000ajTGaH6NBRNssWHXFI1RE7toooIiipqgIhpURERBmH/2N/cZgnS+c++53zez1l7LpfJ4t505Z2bP3h4EnsE111yTeCZhPHsqWUfJzHFcw/CNwKsg6eX/2uG2dqdtZCrTIMnXIM918ScRyv/+oAZAyZc6/2eg7nvKUV5wT9JfFug2L99lScuQ/E3AwJuY8hYLJREULFiQp0+fnjCXsY1ANIkf9x7PAM8ilOQPlTgs0nFM/iC3NZviIMFkqP9BmN95jyuUdJjUvDRN7tHu6J4PPA2aTnLx3t51qgTAwyWB1wgOJN0oIiylKEN6AT3IltOdGQYdzUAILoIQmzFeQPhkvx49eiSeQSjJH/PmrWeH2+dOJrt8whNMJWsl/74UzgzX52XxjuSPMOLZDr4lWqG6eduYStdP9vPZL1h5KhLAR8YowSfJlc3MwzT5WUtWBjdY8ilT3cHJ7Q+ehHQwytB79uyx7Ow4du/ezVdddZVbad+j9YfrD2da+lk8vwmQFdsvSv7GGJybjiuY1uwL71rGP65csmSX/6e9EjE58xmVlE7uu/uRYDidQTQRvJL0DwoCDsYDMLg67czexFSzb/J1zo+DokWL8ty5c3nbtm2WpR3F22+/zVOnTuUiRYqEl/wBvEuz3wpvxt1Fz9xF779EDaapL4R3X8Az6H5Z8jcyzSaHZ198rLYGriv57+5LgoZnsgEoIHgg6fbANfsp6cESlsEVoWbK80wV2oSaKPLmzZsQoIHt7Ndff20ZO4n9/ieeeII7derEuXLlCjf5V2rPdP5L8V2vcDrvtNrBhIxsrtvOD3cUEq0GjJInVfynKNPAddEeSPFuVe/hwv53gyAfnWGsTLo9MDTcV+2xRGVwu6uGLWnZJqFWAjCDjiTVtWtXfu6553jv3r2WwU8z9u/fz++++26islK8eHH38/1HlrfLNVPVvIsOxfc7mLvNhbWsCv9M/Gu4lT38fWghJ/M6KrZjmvVmxC2a3S7K/5DyX0pJiB6Cj5P+AkWtuWxID8D0BBafYZ4aAxQqVIjXrFnDmzdvTnjSW5z8if+DDz7g9evXc7Vq0Ty7xEjp2EdjTordr6TYpBMic6liHZTrwlQwBAnTxXXgPkX5nEbe5+IdRv+/czI2AKUEm5P+CzaZYMnJEEIlQE4Og2/VEa4IEgmqAe3bt+d169bxp59+agJCJ4hdu3Yl1BYHDRrE+fPnjyb55y/FNOz38X/3xz/hZiy2WBUVrQnzWjCjX7h8cq+jYFlNvlE/p4ajXbzHbwiKJ2MDkBHMEiZZUKM205KdlqAM4Zweel6h/b4IEgpK12XKlOFhw4bxvffeayODxyj3P/zwwzx27FguX758wn8hkuSPhNn7quhPhcmYhqnVT5ULkz0R0WgM0+q94V7PgBuS/6wzW0Q/2YGNTfEaLt7l2yiJMSXpRMD8JbQ8awnKENYoFDYBEVUCgOzZs3PZsmV54MCBCWMh2whwojUCgt/QoUM5MzMzvLn+owr9lNAJpSgFYZLFf8F15HEwLQEBnklPhS9hDD5GUjcy8p51WBb9ZMeIe12sScjV45O5AaiUdEEg9F+gCniRTQMYQlxIoORWtHKoxMCjuQvmy5ePO3bsyPfdd1+iNZBOaoK4VlzzAw88wF26dOECBQpEd+JPEP4ylCcy5FatFsW95QXiIsivLu5VnXPCZ8wPv0s2M4WT7F9QgGn25uinlaD+l3zhMggAlaYkx5akv0xgYJoqoCHs09GwO1X8I6qEc0RVABsB9L23bt3K3377bcomflzbO++8w3feeWdipA/X7sMzSKiTjn4gNd7vpZ/rwcqFMRZMfyBYE6qE8de66Uh2KwPjnZFPaGxlqtDaxTv9GjmIy5MvI1mBaeQGS0qG8DH2keQbipyhhkC3bt149erV/OCDDyZY8KkS77//fuKacG0Yj8S1+nHf5eRfsW34JW2XJ8oR97gZ+0uc/gdqQg6VyPhnpmIOJkEGrYv+eaGyUSjTxbO6yMUGoKPg+6S3ATqtjD/hxhDPSsC4P2kVypNNAJAzZ06uWLEid+/enVeuXJnoj3/55ZexS/pffPFFwiNh+fLliWupUKFC4tq8udc4IUNUZurz8Z7z/5/T/2fu3meU4EfdH27LdtVepnYLkj8jD/b/vPeib0eCg5A96d/EPkFbFxsAuAO+mvQXCz7u1gYwRHJiko3n1BeZqvcM1TvgZAGeADYDbdu25VmzZvHdd9+d6J37Gjt27EiU92fOnJn4nfG7+3PaP4LJjtPsrDdSS5G05y/cGWGhDL/w3+FeD75NF1yGRueGq2B41PK/bEBq9HbxrF4UZLrYABQUXObETWrcH+Ors22IP2kKDmMQBIloTPBkxgjRL8+dOzcXLlw4ITe8cOFCfvTRRxOtAmwKcOKGGREmCw4ePJj05I6fiZ+NvwOz+vg7UdrH6N78+fO5efPmid8NvyN+14wISZYnZLE3mRh4v6fQmgNCW4FSbu4Z1mjMy4dZKcGYYdeLkt/7x4kbzPtIvWjkPo59jKngWS7Y/yj/53exAYAewADB10l/wbqsDX+u1GA4UjWtz9U6IUCeJq+jAGI59erV4759+yZO3ldccQVv2LCBn376ad64cSNv2bIlsUnYvn0779y588eNAix1IUoERj7+Gd4F+G/4f/D/4s/AfAc/46mnnkroF1x++eU8Y8YM7tOnD9etWzdRoYjLfUqgSAVNKqtSbK2Bl3y9oW6qWJDehQJf2KORM193YY+rnI+o2f9QUOy0ysU7/qWgb5CrnUQDwXNJ/8XBhFzwoSUhQ/S8AJx00EfNliNeye0o7oR16tRJTBj069ePhw8fzhMnTkxsEhYsWMCrVq1KJPRLL7008c/4d0juEyZMSPy/+DMdOnRIWB3jZ8X5XiR6yJU7MA2/O/XGjuGQB+EiJ/oWshEu05Bp2ssht+YOqGZHsicZ8E23Xxw+kfFIzP+AKbOli3f9aUFdchiFBb9OuigQdpnn/sHaAAY/KgFwf6s/Qk2r4pz4DCqG03wq04x/amJJRSIrVFWdbJxkXe51Zfj3DaOM8GJI9vXAEvncP0ZvVw4fnGSbGmlOvipo1TsLlBYmC3Yl/eE0m2IWwQZ/FtaF25m6XeItL8BwEihQmqn/b5Qdf1EKHi4wR16tmzsCa/lWTCu+DP+6Bt6Y/NM/uASNxqrzXtSjmk3Gu3henwXqfxnkOJoIXnGyU1/+hSUfg19TAjPf0JaAVQNiVPLPozrvszan3qn/R2lrSczNp7gR/MkS/ZnyfDSS3SXruCEy+uBAi+oGVAiT/8xeENSnECKv4HbBD8kXZ7jZko7BQ5LVLq0GlKzlYm7XkMweb5FKTG3nBSz/VK1Q/aCVDVcnf9zHNnOVXxB2ebzftclPkNgkwRgp9Os5CvDckv/MINP/O0EuCilmBozD5F5I9R4qkGBJx+Cjj8CEJ5gajNJRMku4/vX6wdsY/RDTqj2p/S5O/CtToXLu7mXZpkwz/hE+J2vRx0xVuyTfpwMVIR9O/2v26fUl/5mhJT+JQow6gm1Jv5BCZZWAZQnH4CsghoJTSpGKlnR9UfRDuX/weuVtpPr7N+cd7fu7Kv1D8Q9TBVGclgeuY8rvQMugfEs/xsynPOdi9p8Dn54KYW4AcgjuSfqF5MzL1HG5JRmD55MC32l/FE5eLixXDScp6VqGqfNqptmbUrfX/z/GOLu1vZHTkboiTt4olUcxkr3oI6Z6w9xsbIbe7sfza7/QFfv/RkE2CjkgOHAw6Q+rcsfwJScNhtPpV6KkB7nSBiP15JKRzZJyGNa9MLsBoxujfeniI4IWVN//czuVUqyKmmSFXfoHM37wLW6uDdWhJTuif36Y/YcDoZv+f1uKIHIL/uWkDTD0jtQc2zGk6LSALGDjH9fTE4xGbCPgIPFn1/JplS5MYx5Kr5FhkP4w71+sqrv7C2M2VBeiqKRgnLFKJwfXlFvbdRd+H73c+JBbXZX/36II4wonPb1mk5V5bcnFECdgjBXlRlQEYPNpG4HkJH6cTGHggkV0yc70e6/mviMJsrPb+3xWY6Z526IZte3lyMQos7kaPvkg1dzsPFfrwYooNwAoPexJ+kVB2Wry3yyhGGJqLvSJso4hbmVCQqcP+DK0X6Se8Et3pmdVEBue+sPdbibzFmEa9UA014dNR7HKbioa0NuH7n7Uz3DS00wlarh4dl8ImkW5ASgjeNzJHGr3S80gyBBvjgBEPyY+xdRyhra2LKmfXI+/eDU1CJv2SvS2rZFWlHbpyRGlbJdTFDBIimpGHt+GC/MtGAmd94wHXg1wNfyZK2+RBwQlo9wAQHhgmhNRoHLNZHf4riUSQ/wrAiBwgdja9xotS+YtpgY1MXIddIcMZUbjnpSTezPgBiVtJch9h9J48/gZU4tp7hj/WQetRmOYFkU0Pgk9AxA6XZz+W82KvvefxW9AeyX5z29/IP2bgyKOloJNThaGIbcZGdCQeoRBnEzOXqwTL0Ur6YKVbokfp1qU+HEPzl6i98S8QAK5WEn+7RaoHK/Lk3/51kznvxhRX/xzptr9leOR9GmGqvI+edBChqfIOb9ztdF/VdCUPIgSgpuS7hAIVDrblAENKcwVkJPumEeYOixjqtpVWcKpTBzEtWFKomo3uebleu1LPrVN/uFAz7rzGhXkcfksCpdnGnZnNJsuTBrA8AdmTS7eMVQ1fDj9I3fB6j75zw/j99cKivqwAcgWyBB+7qSUM/UFWxQMqV8VmLOFafSD6jmAKYJSdd1pvYetz1+6nl4Trg3XiGu10/7RN4U9r2DKV8yxWVJupo4roiPIXfA2U7XuyZf8BXIXUsU9H57n5L+76v3vFIwLw/nvVKSBn3PysjaZaAuDIb3EhTBFMHsz07g/M3Vdy1SjV9ArzYhHTx+/a83eSi4b97heC64J13axnfaPiUHr3JyKjwRGCjGaFtWpuPevmHI5ctdEvvBFFbLhaFfP8O+CWuRRoApwieBbJ6WqWW/a4mBIzxMhyHBgEkMXA33yTiu1bw6dASRaSBHnzK/VsjDaB/g78HehP42/O38JtVqFkAt+N4zvQg8BvzN+dyvvn4S0tNynwbfqWhfGaCX8BKLa4E7fyFSipptrwzcB0p0Pz3T6a/r7JP86kWMvjUL690QBQsJ7zvwBLrKSocHw48ZgxW7dGKOPjhNVmzlMdQczVerAVLYJU/EaaliERahAGU3UmPfOVVC/qYStcYYC/4x/h/+WN0jq+DP4s/gZ+Fn4mZU76N/Rdi5TH/k7xz4qv8Mm1ai3RH+aJ+J9TCPudZcUDwfkqkduiK79gmttPtVRWyMPU69f+sEZQwUC+hU5nExwvCtoTB4GxhFud0IGrNBWdnY2EmgwnBCYm0ePHSNWsMYdfjfTkFuUdIUxxB6X64w9iIfwfAdAyMO/w3/D/4P/F38GfxY/Az8LPxObDrvHSTz5f6/3+KxG7pN/rgJMZy/V6kxU1zvhL7rJdHF9sNmNrLJxBGa/xZTZ0sV1IrfeKshOnkYnJ5oAUFPrc40RhwwGQ+pg4E1MxauHQ8SsPSDaQ9Tij5kqtXNzfeBNDLrZD2MonP57XelqigO5tR15HDAI+ocTYlHNPlYFMBgMKdDCOagmNWGpQ5asxTT5Wf17o+I4QNcgR243nJR6Q3Sc1Idni0pZtR6uCLuvBOJ7XsdUJzbBOfPpLi8dfL8NBkNqTnmgjYLpCBcKeEc9HZdR98Sokj+4WzDIckOIU1IjnBJ9mC7BRgdKluAjuJn9n0gxiIqCt930eboyLfjQFhKDwRC/5L/oIz0JY1Y9jOSfr7gcmn4bLVl1xmtMFdu7a21A8jeqzc2RmP+BTui4eZ5Q260Qhw1AAcHFTqoAKCENvcOfB24wGAwng4XbmVqcr5XMsJJ/14ujZcVD7rfl9GDixNHpf957/rR1YFftRtYbuXSNIH8cNgBQJ+oq+NDJQ6/Qhmn1PltQDAZDPLDoYxWFCcvzAQQ0+CtEJfaTRYZDQsRGxJVrJMh2vjxjuClmtnD1TLcJOvqk/HeiKC1Y76bsI7vJsY/ZomIwGPwH/O7rDQ0v+UPPAS6C8JmIdNPzEVOJGu6us2Lb6FwMjwaMy7qR/QXWBZ47sQnsVIYJtju5IRAkicq/2mAwGE7mBDz1RaYqXVwmhp96pzQZx7R8V8TiRt8x1R/uTroaCpSj7vdHHA65CFo1bp4rKumD43T6z4qSgnud6QKAC2ALjcFg8A1QRhxyO1PpuiE6LWZnqnMO04ovI9747Gfqf507K2NspppN9mfsD4CMM3KSm7n/uwTFKKZxrhOXQLzstQeqb7YtOAaDwRfA9KjTKne972PNwlfvwTT//eivH058peu7O/1DMnn8n/153kt2MtXq58qHA65/IynGgb7FM26MH8oxDfs9m7uYwWCIngV+SEv+jc51NQd+bDIcxqOnvRL9dBR68o3GuuM7QM64w1KmVXv8Ge1EpaegM0GnJ+N8+s+KCU5GAlEFqDeMacG/bPExGAzR9rxH3MNUrnl4ZL8sgHkOl8ioBdJwD6BuiP68K5tp6Otj1t6X5w5NmrpDXJ3+kTPHUAoE5IHfcbYjhNCFqQMaDIYosHQnU+c1mvgyMsI9+Zeup+XwqMlwqDyM+7PaQru6XognnfsHfyq+UP2DlwNykJtr3hwH2d9TkQc+4EYXoK0/LlAGgyE9gAQAO+aafcM98WehVF2msY/4cS9wH+A34JLgCEEhn54/cg40adxc84G4yP6eijzwP5y9HLAxvcicAg0GQ0gs/+F3MZVtEu6p/8dSeItA/94T0iMI2S6vuXxLpgUelf6Ra5BzkHvcXDNMf8qn0gYgj2ChsypAkUpMC/9tC5PBYHAvcAOWf5GK4Sd/9JqhKzDpaT8OPBg5bLfQjcvf4Va/2Gz51OaFrDOev5tr3i+YE+TMlIqmwc7GzY1rv8gWJ4PB4HDE7Vmm6j3DM/P5n/l3OW3W6M00/VU/kiFaIH2uZspf0m3pv80cpuVf+PUetF/o8lm/KGhEKRggNCwW7HUzFpjJNPUFW6QMBkNyEx0mjdovVrEXN4zvEyj85Va2OX4PH4zQsAEZfjdT4Qru5v1xn6t2YZq9ya/3AaOeGEF386y/EcwX5KQUjTqCpwWHnChEwXADftu2cBkMhjNltqPcD6Z3mQbRJP4sbf8m42Vd+8qf+zLpKZ1AcHndxaoyjXnYP+4HcowbaedDwdx/TUrhyCZYIPjKyUuDHemIe1WUwxYxg8FwWjPt+5jGPsrUYART7oLRJP4syfOWM/wqgUNtECdzl9cNIaWel/vV90dOQW5JVD2cXPdXQe8/g1I8ygd9Djc9o/ojlKRhC5nBYDjVRX72ZqazlzIVrxZd4gfyl1KyIXQGvDkBf83UZIJ78mPdwf5UPH4k/v1bhefcMf+fFZSlNInznJgEJXbNxZiG3GLiQAaD4dSS2zk3M1VozZQzX8TJvyRTj5/7dfLHetpljTuTnywUr84083XPeCDfayvImcphIheOozQKqAO+7uwlwnzuBW/ZomYwGI5/4l+9V3X0wbBH4g99rv8IQFd+yG2SdL7zK/n3v56pQBnHLY/iTCM2yN/nmabLrDeYStZ2ee2vpjLx71gxVPCts5vaaqbu3GyhMxgMRxLZln3OdN7fmFrOdH+qPVkSM5KMT053WaffMQ8xlarj9vrxDCCpvNIzEjf4ILAfdnftmIobSGkYJQWPOH2hIJhhC57BYMgCyupIaC2mqXZ91Cf+LE+T2v2ZJv/djzG/wxXvJvyFqXwrx5ufnKomOHerf+/L+Md1EsPd9W8gdc1Nu8ghGC74j7ObW6277PT/Y4uewZDuWLWX6dzHmBqPYypaObqxvqMp3cHidu67fiV/YPpGlR12fQ9K1NTRQt+mt5Z+xlSls8tr3ykYJMhOaRpgPd7h7Abnlp11zyts8TMY0nak7zs5xT7J1GCkX4k/IWFeUUfLfFO6AxJmN23dCf0cPvIHfgEEl3zjh3S7xGV7CHP/6wVlKI0DM499BFvd3OQMFfFAae1i0wYwGNKmx79qj54qa/ZhylNYpXR9SfzQzq/cUZLsFv8Ib7h3cPer1MH9ZgkjdY3O9ZCrJbnivGdcix29LeiRDnP/JwqYHlzpjBCIDx9lvyU7bWE0GFIZYPSjlD7mEaZ6Q10ptp2ZvC14Bx1XKAnRt/uHzQi8Bqp2dZ/8sS5X6ybr8qf+3Qf8TsgZ7mb+ket+HsjjW0jUJVd2wVl9tsHrbSrAYEjFUT5Y0qK/3/lC7dlGYdZzMgkvsyXT0Du0OuHjfZz5BlPNvi4TX7ARytD2AsYvfev7I0cgVyBnuB37q2Vp/39bATOciQMBFdr4yTI1GAyncdr/Vo1Z4MsOo5xEfz+7f4k/q9TdcJSalfkqUAajoVr9w6malKqrUsu+9f2BC95WMSh3148cN9lS/k+jkOAlp6Mm8K42hUCDIb6A2dc5v1W52JK19LTvwyjfsQD+QefVKiXr6z3FpFSdQeEkf5ysoaqH+Xrf7gM2JC2nu74PkPwtYOn+6NGVXNkFZ5FvEkIbRgg0GGIBKOIt28V03tO6OBetpMxsX0/7P1r45lQCMpTtwE3w8v4G7RNo3OP3de5smI+py1o/W7FoRYx+QO5DLpf3AHa/HS3NHzsKC6512gooWUeJQra4GgweEtEOKEEOY2hTnteEAWlv3wh9x+tvox3Reo7f6wwSHpz90Jpwm/SCDZH8Hc2m+Df18KPc75tqQey29H91UOm2OA4XoI1gk7sXMbdKO5pAkMHgByD/OnuT+r/3/hVT86lKEoMdbhyS/o/l/iLaR8d1XHjA7+Q/71119nOrcvdfAiRaDD4y/hOCPztlIzTGdRXkDUFLG/s7caA/siool7jrQw24wU8SisGQDsx9nI5HP8jU7WdMjcfrXHzh8srViVPSz9LxL9tMNy8LPvS/xYh7Dw5FjhCSP7RYqnZhmvEP/5QOs1j//a5VB0Z392GPYIUgv6X3k4uagqcCtSQ3ZbqyTZWVawuywRAOeQ/CPN0vk+RzDtNZjSXhV1AdfJ9JfCej4992niS4f+pkgu/PAS6pVbqE11Ip04hp/BP+kq8nPyu/Y0OXiofIYU8KqllaP/nIRuoT8LHb0ZwxTIs/tsXZYDhd4RicoEByW/m1JPkvmRZ9or17WNp2Ws3USL6xcnI6LniWMuIh/eqTHO/pnmpxekabYsoLQeL3/NSPBIwNGA4+Yd3/IpWYht/tb/Jf9LFKRLu9Hx8JBgc5zeIUIntAmjjodBPQ83IbDTSkt2wumParvpEE/pVyY5bskMVxO9P8D7RcjNloeKLPeI3p/Jc1wU96RpN8l4uYmk7SU2WxKvEh6532JFFeJSX2uVrvVyyMkL7RZ1WiRnj3CfyNftf5vSHqcYXraRLkrl9Y8j/9KOuUEAig94MFzZKBIR1678t3yfv+nJrQDLpZE1m3S5k6rmRqO19tcqHPjh5xjV5MlTvICb65+sHjRJe/VFC2z57aif5YJ9o2c5mmv+Yvm/0nyX8PU++r1HgotLZIfnU49PlghTXfbd8/i/hX2tL4mcUYp4RAoHoPPfVYkjCkKnAKHHyLJPexTGc10sUPuhjplsRP95CAUvGYh7TVEZtnvldFiPKVCJkTMV83mr7eF2gfYM13ey9A/Bth6fvMo5jgRrcCFXmZzl7ipzqVwXCmmPeeznsXKJMC/fcQAZXBhqNVthb94jgJiKGVg0QM3kWYJ3/8nYt3+HuvwNcAaRNcFLf3A3o2RSx9J0cboAWpgcIhcjoaeL3xAQyp1d+HFTZ8MFK9N5/MkT4kfrRBYFaDErqP42vHe+bztmmlJ4wZ/8NP/miPQLXR1+SPse++v3Zd+keOelnQzGb+kxc5BFMEnzt9iWFSMe5PtgkwpEbyR68a8/WW2E9OIKx4dSU0nv9SvJL+j8/8Bx1tBncjzEoPTv7tFvjdHsGajkpOiZqu78dngkkBid0iiXGW4HbBfrd8APl45mwxvwBDvLH8S9XOt+R+gkmgbKrZ32YO03nPxGOW/1gjmfA5QbUn1KmIPPKezfScGyFr+ezNTNW6ub4f3wtuMeKfu2gn2OK8BNh0YnwXAoMBwMhewTKW4I83AozJBnB/zvtbvL93JN8BNzKVrhdB8p/BtGSn/wRYtESyOZ9c2SxoZWnabStgguCAc1Jgr19aEjHEFHLi6XmFJfnjmfXAZAg9/jix+o8qZvOR2pyD4EkhKipigqT5+YHNsefVUoy5uif9ISeNttK/+8gVtAIOOn2gBcsyjX0snr1Ag837Zza3ZH94VQ8kNSgS9r9ek2Zi4ifGbT70tCHKhLJ22OOcsPVF8veZ7Z/Fg0HfHyqUbu8JctF6QU5Lz+FEJcErTqcCACh+TX9VF1RLLIY4EQDdn3j8B9TooHnQQpLVpKcl6X+XIr4KXzENuT2MxHb06ii4JeCY+L4JxtoN6WO39wQ56EVBeUvL4bYCBgn+5ZYZnJOp/nCVRLXEYojTBiBdx/6QoErWZqpzDlOfa9T8JlWqeAkXxa1MHVfoqGLokxI5Ayv1Xf7fK4xC1hvm2uIX+FDQP8hJFiEGRBZ+Rqq45FYMBESh5V9YYjHEJ1G4lzn1C4UydbMO7s7EJwNiWgpV7jDDDv8FbGwwdhf6xiqfJP8p8TBPW/a5TnWg7eP2vnwtWEsm+BNZVBX8wTkfIF9xpv6/iY/+t8E2ABVap8FpX5JSpQ5MPS7X+Xf09uFOmGrPE9cEMx+w/N2faH8KqAniEIT7GwfXQxBg8xQJo+//WNCOtogooLTUXrDV/UdQiOlcIwUaYjIF0GFZihH5smt5H3196LjDxGjm61qZu/C71G3lrNitIju5C4bL8s+yPQYZuteVTCv3+J/8cb9GPxhWhWRrMJZuan8exFRybRiUKDOW0zKcVQIMvmPiX/WEHHfr3SIVmDJbqDYHiG8wckmHDRyIflAlhZJjVP4NJeswjdwQHyEktH7CIUYi10y2tOvXaODNgh/czhDLh1i+lZYbbTLA4DOW7mSqP0zn3mMjx5uLqXAFVbOrN1SrGGMfUSOedPnecIqdtUlL7oXLR6eOWL4104Qn43PPsCZntgxjs/RDkGts5M9DPsCfQlmkavVnmv2WJRmD37rwGH3DGJzP8/kg71XpzNRimhq1wHJ3xj+UaZ5u7Ta0MtDrr9IpujHObDmZavaVhPq8vkNxuG/YMOF3xtrs/h79Mcg1Fp4FFJi6Cd4KZdQIpiFLPrVEY/AXELsZdidTsSp+JHyQyco1V1nW7pcxjbqf6fwXdbQN9rXpzK+Z/z5Tq5naZoys5ZJbJylmb4pPmxNrMNbicDZMkPrtSqb253UrAK6BO0P5WFCmM88Ag+8M8klPaSXAhTYASq74ufgewDnIVVATPXr3ONlDK37gOnXYW7JDT/aQ34UoT9oTag/Jvdgtm7Tfy/NpHNYJ9tgTFajCLP0sPu0WrL2dVoWlhLgz4JrlsjTrd+QTXBIKKRD91X7XBrKilmwMPs9Gywm7+RS1Qy1QWpnSiQ1Bho6WoaoFpjnGp/KVUG15lOeLVGQqVlX/HOyy4ZwHhUwQ8yq1Z6ozkKn1BcoUH3nfYeV748iccGM2fSNTwzHhS/keifylmDpfGC9y8+q9TL1/FRZBElozFwvyWnqNR5QTbCDX+gCJj6ck09A7Ukdm1JDaSWeaJJ3B65m6XqSJu/lUpnbz5SS1kqn7pbqoDrxR3unbtUQ/7o/KJYBxDixVUapG2RUnV7unp0dYg0rdgBtkQ1U74raMbP5K1GLqf128RilXSfIfeJOOhLq/T8gh9wjKWFqNV9SnMPQBUAXA6WjEPakpQmIwGJIDaBYMuZWp9gBtk0StqwDW/Kj79DQdJ14LNrBwdAxHFwH28/UsncYzhgp2hzI2A5UuuAdCicoWO4PBcDjAw4CML+bUo5rrP3z6Aqx5VHXidPLH2jrqAabi1cMab4XU7zmWRuPNB1gk2BfKJqBEDS2XmlqgwWCAfv/cd9WNMH8JPXX7IK7Udn78eBpYUyf8Rfko4SR/5IyFQQ6xiHGUFFwl2BvKB1akEtPUF40EZTCkM9cCs+ngWUQl5nO0Uz9aleB2rN0fP28LrKkgpYZzv5ArfhnkDosUiJoBKfD7UF6gcs107Oli2wQYDGk11geSJCaDMCWRkd2P5I8Jj+o99QR94f743VOspVhTw7lf3wWkv+qWNlMrmgteEBwKZbddtZu8uC/bomgwpIP74sLtTIPWKcEvCrve4833t5rFNOvNeLYmp72sa6kLDYufArnhWUETS5epF9lI3Zt2hvLhZc8dSAZvsgXSYEhZZv+XKmEM0SPM00dN8Dsc0HuAjTnEfeJ4b8GfgCdE9tB0Ej4RtCFz+EvpTcDggN0ZwiYgp2wC+umLbIulwZAaQA8dSTUxy19HTvwF/DJdgqJgNTk1T3k+vqPJaKVAljg8dURMiw0IcoRFCkduwQzBF6F9kKgE4IW2xdNgiC8wLz/zdaYelyuhzqfTftYkUtFKTF0uZFr2eXzv87z3dEwxvHu3i1TmN7elx/SZDLicwtAIyAJ2s3PesUXUYIgbVn2jLPQua5lK1/cv8We5+FXtquqNcRYku+BtlZcO794hB1wmKGFpMb2isuA2CkMjIKssB3/2Gf+0BdVgiMuJHwI+Zy9mKtvUjzn+o6FwJlO7BSrVHOf7Pf1VFUtC6zSce4e1/5YgF1ikYdQQPE5heAYkRDjyMNXozTTtVRsRNBh8FvDBSbrBCC31Y4zOx8SPUz/Ih6MfZFrxZbzHJ+FRgVHF8IyRsOb/UVDN0mD6BtieFQVvhjIemDUiWKG1vvCmGGgw+DHGBzOvRR8xDbieqXxrdUX09cQPwmG+4tqSWLwjXi5+R1P4w1pYvlVYo35Z437/FGQa498CUTd4IQ6G9hFDz3rKc/IB/GALsMEQ1UkfSX/ik2qVDJ1+HxP+4cDGBL1+6PjHfppC1r7z/qbyvuHdw4PBWl/L0p5FVmQXdBO8HlolAIC/+vg/x1Cdy2CI8WkfrnxTn2fqdx1TnUE6xud74sfpGATEbpeoHXMqbL7O/YO2WMK7j1kn/27Bmm9h8WPkEQynMCyEDx/bKdOQaeR9WoK0BdpgcMfkP/9Fpt5XMTUex3RWY1XJ8z3xA7nk92w8nmniU0yrv43/s8BaB/t0OKiGO1EBa9+hwVpvYfGTyC+YKNgR6iagZG39IOI8vmMw+HjKxPhet5+pIBcSTp7C8Uj6P5qLVWQadDPT4o9T5JlI8h92ZxQ6Ch8LxpK5+1mcICAGMV6wJ1RST8Gy8mH83jYBBsPplvbx7azco6QyOPGVbcKUr4Se9H2c3T/eoSB/SaaW01RKPFVahDj5D7mdqUCZsJUTofw6UpDL0pvFyQaUoXaG+uFjBKbPr5iW77IF3WA4GQY5xt8gtQ0uTdt5yqvJljNep/zDDwKF5CDQcJQ64KXSlNCy/zD1+mWY0r5ZwBo+ztKZxalGXsHsoHQUYr8vP1P7RUzzttkCbzAciZVfM13wllrbDl7P1GYuU2bLMMVj3ABjfTX7MA2/S07K+1LomR3SDVrbuVFwLv5FKvtuPX+L04qigsWhcgISm4ACegqA7rhpBRjSOuHvYZrxmnJkwIBvNpmpahem4tXiQ+I7kThY5Y7q2rfgX9rKSKUKzXR5dvWGRWGRjIPbHEEhS2MWZxLFBCspTPOgrIUBC935L6fWomAwnEh+F5Kwg37L1Hq2fgOYlIHcbSLhZ8Q/6WehaGUti8/ZknrcHyR/EDArdwhT3S8LWKuXBQc4C4ukTAesEXwb6osMJbKiVZgmPR1vtS+DISsprD2gyQ5lbiT7xEz+S0x9rmGqO0RO9jWY8pdiyl0oin5xON90vmJMLadrmy8Vx3+xVkFcCc6EGaGrKX4bHNiM7W+R9MCL9Z/QF428RXUUKNZ634a0SfJI7CB9Ldqu/V+0sqY8yzT8HrXSRfKr3kNHwcIvDUdU6s/LVKoOU6tZTLPeTN3WHjZ0A2+Matzyi2CNtrBwRgycF5BLwn25MRbUaRXTwu1mJGTwY8Z+6WeS4LeqLO2EJ5hGbmAacANT5zVMzacy1RrAVK65jrjGnaR3JokfokMg9k7fmMKVvEPKYeiwTAmN4d/rj4Kyv538LZwGSCXnC94P/SWHDniTieqZbbwAw+lixVdqHQsddsixjnlIkzcEWobcptUmmOL0/bUq5/WUU3u3izWxd1wuyWyhnmQbjFIHt8zmqueOSlVGRnom+qON9Ga2UMOeKc/LhulAamsw4H2CwiJaN+Hf7w8EswRFLD1ZhBEFScWCPqIoWMMV2zNNfcESmeHUgBNaj5/ruBn87aFAicSNXm3hCkyFyqkhDnrwOMUhoWNBx1QKLHHRk084tlmSPy5AWuxzNdOsN7Qdkurv1eRnmSq01bUp/Pv9ieA8Mra/RcgBxcD+kXACcMoqWpHpnPXmIWA4OflVkOxQikfPPU6qeHER8MHmCIm/7/+pbG/Kf5eHlMg58CbdPEZT+flKMCxYiy0sIomugm0Upovg4XoBIFSBaGVTAoajlWbBNEepPntuS9QuGP1Q7sOo4uBbtLWSDu8V1po57yjPIzoS53bBIEs/FlFHDkEfwWukXtPhfgg4ecDoBMpoaw9Y0jP8Fwv/rX3ZHJb8kwroEZzViKnpJHXyTJfEn0j+B1R2uUbvqCSXcdDaHJz8Tdvfwpt2QC/By5FsAlB+Q/kR5TgzEzJkCer0vIIpd0FL2Ekj4RbWzXbPXzBNeS7FJHtP0sxnwI3qqhgND+QHwSuCAaQTWRYW3gR2ox0Er0bSDgBA4Oq4gmnp55YA0x0o0ZaoZUk7Wd9V04k6MTH//fTcZC/dydRhqdyLMlE9B6ypLwna2cnfwtfILqgdWTsgqzxZu79aolpLIE1xiKnvNUb2OxM7XjDacdLFaR/mQyt2p+foLdYQOBNiciQ674WDQfKvJshmacbC9zhLcL9gT2SLGEa6MIq0ZIclxHQk/2E+35L5KST97Dr2WKKGShKPfUzFjtL5PVr8CVPvX2kFJLpns1dwn6C0pRWLOEWm4CrBZ5F9PCAINpmghkLpvpil2wagSCVL6ic7SVO2CVPDMVo1gUxvun8ruP7zX2RqNDbQfYjs+ewSXC+oaOnEIo6BXesCUrGK6E42UCSDuxp0ui1BpocefzSiLPEAZIkhgtR4vKodQlQLJX57d5iW7VIycblmURj5HI5PBcsF5SyNWMQ5oFA1UvB5dJuADC3jtZjGNPc98xJIhw1ANJKsfvf1i1fX2XXIHU97mWnJp3KvTD/jR94I9ERwfwqUiVrSGSf/0YLClj4sUiFyCrqR+gcciuzDwjx4qbpq3GIEwdRuAcBWN52V+VC6BmmtdH2mdgvlnX9SjbRW7rZ3/2hEP6wJWBui1YzA2vhvQY9gzbSwSJnIEDQSPCnYF+kCmTMP09lLVCXOuAGpeZprfG76ifNA6hil/Zp9VQMB7H0zzTp+rx9rQLtFPrSM9gVrY5NgrbSwSMlNQAPBbRTlhEAWQbByB6ahtwe6AbZQphRG3JvaCoDo4xfKZCrfiqneEKbOq5lG3a8JzU74J94gwsoZ3z7WAKwF0T7PrwW3Cupb8rdIh6gsuCh48T0QOZmklqW2OKaQDPB2pipdUijpZ+iYHgitsMSGRTEsjGe8pmV9e+an5t6He1igjA/P9hvBWkElSwsW6RTwrp5MynaN2NQkh2qb97rSJgVSqbw7/C41q4kraa9wpuoZtJnLNOAGpvGPM818XVXpzPzq1IFvG62RMg2iHu/LApxUZwdroYVF2gU8BLqTygcfpKhPWNCNr9GL6by/m6dAKmDVN0xdLlINe99O80jwSEIoP6NVkbcIU6WzmVpfwHTO71TJEmZGyz6X69gTcFWsTXV6m0H5lic9LZup7vKNF4hKx/9IZb83BX0FeSwNWKR7VBHcJPjSiwUaG4F285nmbLF+auxNgb7Vyk7RKtHI6eJdyldCKxHFqiorv3JHphbnM/W+imnso/KebTUyqit2/+zNTK1mMeXyxhRqd9Dvr2nLvoXFf6OoYAmpz7UfHyv6rUPvUElQW1DjjTEPM1XpxJSnyJm3i6Ceh6ReuLzO1iOp412p3End8uoPZ2o2man9IqbulzENWsc0+iGm6RuVfAadAnsmbrHoY6YhtzKd1din6s/HglWCkrbcW1j8NDD7OobU8vKQFx8tFnrICZ/7R7WYtcU1voDQC5Lx2Ut1TBDJulp39XbHP9cZxFRvKFODkUyNxqhSHhJ5q5nqBNf1Yq0mDLhek8vI+/S9OO8ZSe6vys/fqv35dLPJ9a3tg6pKI3m++Yr7lPz/IRhnJX8Li+NHDkFbUgOM/eTLyFXxapoMZm+yRTYV2gJQwYO1LZL2vPf0nxd8qH13nB5R9VmyU3vwK77UpG6qeX5j5hs60YNWS7acviT+A4KHSa3STdzHwuIkApaXMBO6OuiZeTJ7nYupSEWmbj8LZFStlGswRC77vHgHU5e1+m1mz+nTqR9jzv8nqEBqlW5hYXEKgY9mrGCL4AfySWoVtqkwUsHp0YiCBkP4BD+0dGD5jepc9Mz+I0/9m0g9UCzxW1icYbQSPCT4inxTYwOje/CtKjxjC7PB4F7FD22awbfo2KQf8/yHA5NMG0hlzy0sLJIQGUEZDfaYWylyzYAjgDlzEMcgP2tCQgaDO6ve4XfrlIV/bo8Hg7VpadC+NElfC4skR0FS4aAnvGoJJMbDsutYGDYCYx6xuW6DIZmqjhijrD9CvzF8a34lf6xFMPLpFqxRFhYWDnkBpQWXkzpoHfJrI5BDRwfhyIbxsDXfmyObwXA6ls74dib+Vcc08U35V+7H2vO94FeCMtbvt7AIdyPQU/CC4FvyUc8dEq/VejCNeoBp0Uem324wnJDc94PyaUZsYKra1WdHRxw+Ngr6k44uW1hYRMANqCW4RrDDu2pAFqAch4rAkNuY5n9g44MGw9HG+eZvU0It/Dhy5vM18R8K1pobBA1JR5YtLCwiDMgIn0uqIOivwxuIS1Cb63+9Cs/YRsBgiZ9pniT+ftcx1R6g3gn+fsNI/s8Ga00JW3YtLPxqCTQTXE8qwOGpzWuG9jMxPghBIegIWCIwpCNggtR1LVOlDirbm5Hhc/LHeN9VpON91uu3sPC0JQBv7cFBf+6A1xuBXPmZilRStzLYv15ohEFDqhP7vmM6/yWmFtNUuQ/fAHmd+LGGvCwYIChENt5nYRGbtsBqwTbybWTwqITBPExVOitPAApnZjxkSBnvhb3quTB4vZ72/SX2HTnX/6HgQkExW04tLOIZMOGAMtdnMVh01Ee+XDOmbpfqGCHMaKwqYIjjaR/Wx5OeVhfFso19L/EfWe5/VNDDlk8Li/i3BTCjO410ZHB/LBYhzDyXqMnUdCLTOb/VE5QlFkMsevvvMA26manJeKbi1X2c3z9euf81wSJBRSv3W1ikTuQmHdu5jHzzFDhRRaBAaaYKbZjazWea+BTTKmsPGDwD3km8m23n67taoFScTvwcrAlXkBKJ89lyaWGRmlFA0DGoBvjPDTiSJ4DNQKX2TL2uVN96CKdYi8AQRYkf7x7eQbyLFdvruxmP/v7hY3049UPGtx2ZjK+FRdoEPvbJpAzfPbHaCGQhp2wI6g1jGnGPEgdX7rbNgMFt0l+xW981mPLUG6rvYBy/Hf3mnxeMshO/hUX6RlXBKsGr5PPY4Ilsics0YGq3gGnU/UyzN8tmYI8lLENysPJreac26buFEn/pBvrOxTPxg93/umCNoIotfxYWFhD2aEMq9PEe+SopfDLIW4ypSiem1rOViDXjNZ29tkRmOBXAiAfvzqDf6rtUuZO+W3H9LvSb/lBwHelkkOn3W1hY/E9ARKirYB3FiSh4LHvi/CWZyjZR//QBNzBdsIVp7QFLboZjG/HMkXdk4I1qvVu2qb5D/tnvng7B77ek5mHFydj9FhYWx4hswUagi+A5ihtR8FiTBHmKqPIajFb6/pppwYe6GUj4ERhvIP1wSJ893gG47/W7lqlmH1WmxLuSEfukfyj4dp8QnE0qDGbGPRYWFicdOQVjg43AF6T9Q04JZMumJzzwBsY8zHTBW0yLdzCt/taSY8qW9fcxLflUnvXbTGMfZWq/mCmzZSqc8I/s8e8iZfb3s1K/hYXFmUZZwQzBH4LFhVMKqBAUqcBUZyBT95/LhuAhpumvSrLYaY6FcXfag5LkjH/KM32EqecvmOoOYSpaOdWSfhZ2C/4kmCIoZcuWhYVFsgJ9w0rB4vIYxZ0jcDyTIpC9MlswNRqjMq6jH1LnNiMT+j+mt/wL3byNuFfdJhuPV2EeOFBio5eK7yzRN8GJfxbpVI/1+C0sLJxEtmCRGRtUBPam6KIaiA/l1hMjkgjIhJ1WSXK5W+Ve4V5oiTdarPhK3fX6/4ap5XSm6j2V+Fm4vApHpfK7SbRP8BfBJEFtMpteCwuLkCJnUGYcKPg7KeEovuODJ9sqyJlPvdvRMoDBS6OxTH2uZpryvPIHEsqERixMOlnvoh/03q76hum8p5m6X8ZUZxBTyTpMhcoy5SnMlD1Xqif8w8l9z5LafpcOvkULCwuLSAJEIxCOHhZ8SqkwOXC6UsWVzmbqsExtjVGKhokRWObL/qO2sMYpOHb5HvcH92nRdr1vs95gGnoHU8cVTHXPkWRfO12S/LGMej4RPCjoTUbus7Cw8CwKC4YI7hC8S6k0NXC6WgRoH0BEpukEpi5rmQbfwjT2ET3FQmgGsrJgpoOhnvJJHif4PUyLP9EWyvSNapeL+4FED75F00lMVbowFauSzsn+yBM/xLluEfQn0+u3sLDwPKAj0EdwteANiosFcVhtBJAMYRNbviVTjd5KNmwzVzYIF2ovG94GE/8qJ+BNsjnYES+uAWRzEwl+C9PUF3TcbvB6NczBSb7lDKYGo5iqdWcq11wSfTW9H6nJyj/TE/9bgmsFfQWFbFmxsLCIU2DRaimYL3iR4uo1EFrFIIckw6JKYEO5GzPqOA3X6q+bhFYzlYSIZDponTLdxz/ONG2jVhKWfsa0dn+SyvH7lGCH6gREk5DQp7+mG5NRDzCd8zv5PX7J1Hm1bF7mMDUZz1R3sAotVenMVKG1+jMUq8qUvxRTrvypzMJPJtA+2yhYIGhFKuBjrH4LC4vYRh5BOcFoUlGhg5TqhEEXlQOUxEFCzF1QNwoYbStQhqlQOVU5RNm8RA1BTU2+5ZpqlaFiO/VHwKkbane1B+g8fEM5idcfJhuMfkxVu+ikw1mN9c+jQoHTeVH5mUUrKemxUCZTwTIqj4tTe+5C+vtgUsJO8Gda5j8YfBuYrskMvhkLCwuLlIpcgvakPU30NvdZAjCkKb4NvoFbBe2Cb8PCwsIi5QMs5maCywUvkUoNW1IwpAPwrqMl9nNBc7L5fQsLizQNCAs1EkwT/I6U+JSeY4SGVO/tvx2841MFDcnMeSwsLCx+3AhAWAjEp+mCPwu+tsRhiDn2kKr14Z1uHbzjlvgtLCwsjhHohZYRtBFcKthG6aA0aEglpb4PBb8g7e2fRdbft7CwsDitgNRpN8Ftgq2CLyndRYYMvlnw7g42qneTamDkts/WwsLCInkBslR1wUzBnYLXgs2AJSFDFECL6nXBBlKtizpkEr0WFhYWzqOAoAUpefA60hlqWBRbm8Dg2nr3FcFNgtmkJf6i9jlaWFhYhB9QSYP0cANSrfRLSMcKTV/AkCxAyhqS1r8kdeBrIihORuazsLCw8GozgMoAlNTaCtYIXg0WcKsMGE6FyAfZ6ncEVwq6CCqSSltb0rewsLCIUVQh1VbHaCGU13ZahcBwGPYKdpBqUNxPWtqvRabBb2FhYZEyAYJWNcEwwWWCR4IKwSdkjoXp5rT3afDsHxKsJXXcK2snfAsLC4v0iMKkUqwjBSsFt5NOFnxlSTLl8B1pSf8+wUWCMcGzN5tdCwsLC6sOJARb4E8AMuFCwV2Cd8n4A3El7m0mnctfLRhBygupQDajb2FhYWFxjEDvF3asJQSVSRUJMW54veB5UnlX2xT4RdoDpwPjeb8RTCRl6oO4V1KQn6y0b2FhYWGRhEAyqROcKiFV/Fhw2vyX4D9BMjKlwuQq7cE6Fy564GtAcQ/9eyhDziGdxc9jr6WFhYWFRRQBLQIIE40ntTi+Q/AnUk2CLaSks31WOTghvhd8Rir5/HJwD28PNlpTBN0FVcnK+BYWFhYWngZki1F+bhgkLZDO5gebAyS0xwUbBe9T+pEOwcLHKCbscZ8VPCxYL7hCsEgwTtCT1Ca6JFn53sLCwsIiBQKlapANawqaCjqQmsegnYByNpQMbxY8Slrm3k7KYI9bgt8l+IB0qgLjlpDOBft+hmBosCkCtwIKjtBpKEVWxrewsLCwSMMA8RBlbSgZFiO1QwZjHeXu2qQja10FQ0hJbtgsrCK1nF0nuIe0XP5ckHTfJG09QPgI3AT0zj8Pqg0QvvnhsIT9Q/DvdgeJG+2Kj4IE/m5wUn8j2JD8PUjotwquIh2fRFIfJehF2gbB71sjSOwVgmuBXj7IeDnJBHYsLLyI/wfdBXzY1fGNXwAAACV0RVh0ZGF0ZTpjcmVhdGUAMjAyMi0xMi0wNlQwNToyNDoxMiswMDowMHcTQD4AAAAldEVYdGRhdGU6bW9kaWZ5ADIwMjItMTItMDZUMDU6MjQ6MTIrMDA6MDAGTviCAAAAAElFTkSuQmCC;" vertex="1" parent="6d0o6C51L8DvsJEreN6W-7">
          <mxGeometry width="40" height="40" as="geometry" />
        </mxCell>
        <mxCell id="6d0o6C51L8DvsJEreN6W-6" value="Navidrome" style="text;html=1;align=center;verticalAlign=middle;whiteSpace=wrap;rounded=0;" vertex="1" parent="6d0o6C51L8DvsJEreN6W-7">
          <mxGeometry x="40" y="10" width="60" height="20" as="geometry" />
        </mxCell>
      </root>
    </mxGraphModel>
  </diagram>
</mxfile>
